<svg width="60" height="60" viewBox="0 0 60 60" fill="none" xmlns="http://www.w3.org/2000/svg">
<path d="M31.3734 49.0578C43.0866 49.0578 52.5822 39.5622 52.5822 27.849C52.5822 16.1356 43.0866 6.64014 31.3734 6.64014C19.66 6.64014 10.1646 16.1356 10.1646 27.849C10.1646 39.5622 19.66 49.0578 31.3734 49.0578Z" fill="url(#paint0_linear_4077_31943)"/>
<path d="M31.3721 46.7129C41.791 46.7129 50.2373 38.2667 50.2373 27.8477C50.2373 17.4287 41.791 8.98242 31.3721 8.98242C20.9531 8.98242 12.5068 17.4287 12.5068 27.8477C12.5068 38.2667 20.9531 46.7129 31.3721 46.7129Z" fill="url(#paint1_linear_4077_31943)"/>
<path d="M52.5824 27.849C52.5824 36.0067 47.9762 43.0896 41.2223 46.6366L12.5859 18.0003C16.133 11.2463 23.2158 6.64014 31.3736 6.64014C43.0865 6.64014 52.5824 16.1361 52.5824 27.849Z" fill="url(#paint2_linear_4077_31943)"/>
<path d="M31.3732 44.1635C40.3835 44.1635 47.6878 36.8592 47.6878 27.8489C47.6878 18.8385 40.3835 11.5342 31.3732 11.5342C22.3628 11.5342 15.0586 18.8385 15.0586 27.8489C15.0586 36.8592 22.3628 44.1635 31.3732 44.1635Z" fill="url(#paint3_linear_4077_31943)"/>
<path d="M31.3725 11.5342C31.3342 11.5342 31.2964 11.5354 31.2583 11.5357V44.1621C31.2964 44.1624 31.3344 44.1636 31.3725 44.1636C40.3828 44.1636 47.6871 36.8592 47.6871 27.8489C47.6871 18.8387 40.3828 11.5342 31.3725 11.5342Z" fill="url(#paint4_linear_4077_31943)"/>
<path d="M37.5406 42.956C43.4927 40.5233 47.6873 34.6763 47.6873 27.8489C47.6873 18.8385 40.3829 11.5342 31.3726 11.5342C24.5452 11.5342 18.6982 15.7287 16.2656 21.6809L37.5406 42.956Z" fill="url(#paint5_linear_4077_31943)"/>
<path d="M23.9202 36.0426C26.6697 36.0426 28.8986 33.8136 28.8986 31.0643C28.8986 28.3148 26.6697 26.0859 23.9202 26.0859C21.1707 26.0859 18.9419 28.3148 18.9419 31.0643C18.9419 33.8136 21.1707 36.0426 23.9202 36.0426Z" fill="url(#paint6_linear_4077_31943)"/>
<path d="M18.4614 50.6424C20.4021 50.6424 21.9755 49.0692 21.9755 47.1283C21.9755 45.1876 20.4021 43.6143 18.4614 43.6143C16.5206 43.6143 14.9473 45.1876 14.9473 47.1283C14.9473 49.0692 16.5206 50.6424 18.4614 50.6424Z" fill="url(#paint7_linear_4077_31943)"/>
<path d="M10.3857 40.3578C12.3265 40.3578 13.8998 38.7845 13.8998 36.8438C13.8998 34.9029 12.3265 33.3296 10.3857 33.3296C8.4449 33.3296 6.87158 34.9029 6.87158 36.8438C6.87158 38.7845 8.4449 40.3578 10.3857 40.3578Z" fill="url(#paint8_linear_4077_31943)"/>
<path d="M19.7728 41.4907C21.3092 41.4907 22.5548 40.2451 22.5548 38.7087C22.5548 37.1722 21.3092 35.9268 19.7728 35.9268C18.2363 35.9268 16.9907 37.1722 16.9907 38.7087C16.9907 40.2451 18.2363 41.4907 19.7728 41.4907Z" fill="url(#paint9_linear_4077_31943)"/>
<path d="M14.6656 31.0054C15.8247 31.0054 16.7643 30.0658 16.7643 28.9068C16.7643 27.7477 15.8247 26.8081 14.6656 26.8081C13.5065 26.8081 12.5669 27.7477 12.5669 28.9068C12.5669 30.0658 13.5065 31.0054 14.6656 31.0054Z" fill="url(#paint10_linear_4077_31943)"/>
<path d="M40.9962 54.2703C48.1776 54.2703 53.9993 48.4486 53.9993 41.2672C53.9993 34.0858 48.1776 28.2642 40.9962 28.2642C33.8148 28.2642 27.9932 34.0858 27.9932 41.2672C27.9932 48.4486 33.8148 54.2703 40.9962 54.2703Z" fill="url(#paint11_linear_4077_31943)"/>
<path d="M40.9954 51.5282C46.6627 51.5282 51.257 46.9338 51.257 41.2665C51.257 35.5992 46.6627 31.0049 40.9954 31.0049C35.3281 31.0049 30.7339 35.5992 30.7339 41.2665C30.7339 46.9338 35.3281 51.5282 40.9954 51.5282Z" fill="url(#paint12_linear_4077_31943)"/>
<path d="M53.936 42.5522H28.0562C28.1271 43.276 28.2581 43.9822 28.4429 44.6662L37.5968 53.8201C38.6804 54.1127 39.8198 54.2699 40.9961 54.2699C47.7437 54.2699 53.2905 49.1302 53.936 42.5522Z" fill="url(#paint13_linear_4077_31943)"/>
<path d="M27.9932 41.267C27.9932 42.4433 28.1504 43.5827 28.443 44.6663H53.5494C53.8422 43.5825 53.9993 42.4433 53.9993 41.267C53.9993 40.0908 53.8422 38.9513 53.5494 37.8677H28.443C28.1502 38.9513 27.9932 40.0907 27.9932 41.267Z" fill="url(#paint14_linear_4077_31943)"/>
<path d="M33.4706 23.8788H29.2751C28.7976 23.8788 28.4106 23.4918 28.4106 23.0144V21.6108H34.335V23.0144C34.335 23.4918 33.948 23.8788 33.4706 23.8788Z" fill="url(#paint15_linear_4077_31943)"/>
<path d="M31.3734 22.4816C43.0866 22.4816 52.5822 18.732 52.5822 14.1067C52.5822 9.48145 43.0866 5.73193 31.3734 5.73193C19.66 5.73193 10.1646 9.48145 10.1646 14.1067C10.1646 18.732 19.66 22.4816 31.3734 22.4816Z" fill="url(#paint16_linear_4077_31943)"/>
<path d="M31.3725 19.5604C41.969 19.5604 50.559 16.4649 50.559 12.6462C50.559 8.82756 41.969 5.73193 31.3725 5.73193C20.7761 5.73193 12.186 8.82756 12.186 12.6462C12.186 16.4649 20.7761 19.5604 31.3725 19.5604Z" fill="url(#paint17_linear_4077_31943)"/>
<defs>
<linearGradient id="paint0_linear_4077_31943" x1="19.7913" y1="16.2669" x2="43.3491" y2="39.8247" gradientUnits="userSpaceOnUse">
<stop stop-color="#8A7889"/>
<stop offset="0.3344" stop-color="#867385"/>
<stop offset="0.7039" stop-color="#7B667B"/>
<stop offset="1" stop-color="#6E566E"/>
</linearGradient>
<linearGradient id="paint1_linear_4077_31943" x1="41.6744" y1="38.15" x2="20.7197" y2="17.1953" gradientUnits="userSpaceOnUse">
<stop stop-color="#8A7889"/>
<stop offset="0.3344" stop-color="#867385"/>
<stop offset="0.7039" stop-color="#7B667B"/>
<stop offset="1" stop-color="#6E566E"/>
</linearGradient>
<linearGradient id="paint2_linear_4077_31943" x1="53.9304" y1="39.8784" x2="10.7444" y2="-3.30759" gradientUnits="userSpaceOnUse">
<stop stop-color="#6E566E" stop-opacity="0"/>
<stop offset="0.2944" stop-color="#674D66" stop-opacity="0.294"/>
<stop offset="1" stop-color="#593B56"/>
</linearGradient>
<linearGradient id="paint3_linear_4077_31943" x1="21.9206" y1="18.3963" x2="44.3917" y2="40.8674" gradientUnits="userSpaceOnUse">
<stop stop-color="#FFDECF"/>
<stop offset="1" stop-color="#FAA68E"/>
</linearGradient>
<linearGradient id="paint4_linear_4077_31943" x1="48.6844" y1="27.8489" x2="27.8439" y2="27.8489" gradientUnits="userSpaceOnUse">
<stop stop-color="#FAA68E" stop-opacity="0"/>
<stop offset="1" stop-color="#FAA68E"/>
</linearGradient>
<linearGradient id="paint5_linear_4077_31943" x1="38.1379" y1="27.5474" x2="19.459" y2="8.86849" gradientUnits="userSpaceOnUse">
<stop stop-color="#FAA68E" stop-opacity="0"/>
<stop offset="1" stop-color="#FAA68E"/>
</linearGradient>
<linearGradient id="paint6_linear_4077_31943" x1="23.9286" y1="32.5784" x2="23.9286" y2="19.4303" gradientUnits="userSpaceOnUse">
<stop stop-color="#FFDECF"/>
<stop offset="1" stop-color="#FAA68E"/>
</linearGradient>
<linearGradient id="paint7_linear_4077_31943" x1="18.4707" y1="48.1935" x2="18.4707" y2="38.9125" gradientUnits="userSpaceOnUse">
<stop stop-color="#FFDECF"/>
<stop offset="1" stop-color="#FAA68E"/>
</linearGradient>
<linearGradient id="paint8_linear_4077_31943" x1="10.3961" y1="37.9104" x2="10.3961" y2="28.6295" gradientUnits="userSpaceOnUse">
<stop stop-color="#FFDECF"/>
<stop offset="1" stop-color="#FAA68E"/>
</linearGradient>
<linearGradient id="paint9_linear_4077_31943" x1="19.7819" y1="39.552" x2="19.7819" y2="32.2044" gradientUnits="userSpaceOnUse">
<stop stop-color="#FFDECF"/>
<stop offset="1" stop-color="#FAA68E"/>
</linearGradient>
<linearGradient id="paint10_linear_4077_31943" x1="14.6754" y1="29.5431" x2="14.6754" y2="24.0003" gradientUnits="userSpaceOnUse">
<stop stop-color="#FFDECF"/>
<stop offset="1" stop-color="#FAA68E"/>
</linearGradient>
<linearGradient id="paint11_linear_4077_31943" x1="34.4192" y1="34.69" x2="47.7104" y2="47.9814" gradientUnits="userSpaceOnUse">
<stop stop-color="#F8F6FB"/>
<stop offset="1" stop-color="#EFDCFB"/>
</linearGradient>
<linearGradient id="paint12_linear_4077_31943" x1="46.1858" y1="46.4568" x2="35.6969" y2="35.9679" gradientUnits="userSpaceOnUse">
<stop stop-color="#F8F6FB"/>
<stop offset="1" stop-color="#EFDCFB"/>
</linearGradient>
<linearGradient id="paint13_linear_4077_31943" x1="40.9961" y1="51.3971" x2="40.9961" y2="35.2409" gradientUnits="userSpaceOnUse">
<stop stop-color="#EFDCFB" stop-opacity="0"/>
<stop offset="0.4856" stop-color="#BAAAD6" stop-opacity="0.486"/>
<stop offset="1" stop-color="#8679B2"/>
</linearGradient>
<linearGradient id="paint14_linear_4077_31943" x1="35.2907" y1="35.5614" x2="46.8207" y2="47.0915" gradientUnits="userSpaceOnUse">
<stop stop-color="#F8F6FB"/>
<stop offset="1" stop-color="#EFDCFB"/>
</linearGradient>
<linearGradient id="paint15_linear_4077_31943" x1="31.3728" y1="21.7809" x2="31.3728" y2="23.7662" gradientUnits="userSpaceOnUse">
<stop stop-color="#8A7889"/>
<stop offset="0.3344" stop-color="#867385"/>
<stop offset="0.7039" stop-color="#7B667B"/>
<stop offset="1" stop-color="#6E566E"/>
</linearGradient>
<linearGradient id="paint16_linear_4077_31943" x1="22.5658" y1="5.29917" x2="40.4802" y2="23.2135" gradientUnits="userSpaceOnUse">
<stop stop-color="#8A7889"/>
<stop offset="0.3344" stop-color="#867385"/>
<stop offset="0.7039" stop-color="#7B667B"/>
<stop offset="1" stop-color="#6E566E"/>
</linearGradient>
<linearGradient id="paint17_linear_4077_31943" x1="32.493" y1="13.8372" x2="46.8945" y2="29.1459" gradientUnits="userSpaceOnUse">
<stop stop-color="#6E566E" stop-opacity="0"/>
<stop offset="0.2944" stop-color="#674D66" stop-opacity="0.294"/>
<stop offset="1" stop-color="#593B56"/>
</linearGradient>
</defs>
</svg>
