<svg width="60" height="60" viewBox="0 0 60 60" fill="none" xmlns="http://www.w3.org/2000/svg">
<path d="M47.0851 6.28705C47.4877 4.89184 46.4407 3.5 44.9886 3.5H35.0955C33.6434 3.5 32.5964 4.89184 32.999 6.28705L35.2708 14.1589C36.042 16.8311 35.6914 19.7022 34.2999 22.1104C33.3644 23.7294 34.5328 25.7539 36.4027 25.7539H43.6813C45.5511 25.7539 46.7195 23.7294 45.7841 22.1104C44.3926 19.7022 44.042 16.8311 44.8132 14.1589L47.0851 6.28705Z" fill="url(#paint0_linear_4077_32110)"/>
<path d="M45.2412 12.6763H34.843L35.271 14.1589C36.0422 16.8311 35.6916 19.7022 34.3001 22.1103C33.3646 23.7293 34.533 25.7538 36.4029 25.7538H43.6815C45.5513 25.7538 46.7197 23.7293 45.7843 22.1103C44.3928 19.7022 44.0422 16.8311 44.8134 14.1589L45.2412 12.6763Z" fill="url(#paint1_linear_4077_32110)"/>
<path d="M55.0141 34.4781C54.1374 45.66 45.0375 54.6741 33.8484 55.4436C28.4933 55.8129 23.4978 54.3311 19.4363 51.5773C18.6073 51.0151 18.5001 49.8312 19.2243 49.138C23.1644 45.367 25.7753 40.212 26.2207 34.4781C26.4257 31.872 26.1922 29.3517 25.5847 26.979H54.3732C54.9831 29.3516 55.2165 31.8719 55.0141 34.4781Z" fill="url(#paint2_linear_4077_32110)"/>
<path d="M48.8465 34.4781C48.0104 45.1692 39.6538 53.8714 29.146 55.2887C25.5824 54.8076 22.2806 53.5045 19.4363 51.5773C18.6073 51.0151 18.5001 49.8312 19.2243 49.138C23.1644 45.367 25.7753 40.212 26.2207 34.4781C26.4257 31.872 26.1922 29.3517 25.5847 26.979H48.2105C48.8156 29.3516 49.0514 31.8744 48.8465 34.4781Z" fill="url(#paint3_linear_4077_32110)"/>
<path d="M42.6816 34.4781C41.9288 44.102 35.0801 52.111 26.0564 54.6479C23.6694 53.981 21.4398 52.9351 19.4363 51.5773C18.6073 51.0151 18.5001 49.8312 19.2243 49.1379C23.1644 45.367 25.7753 40.212 26.2207 34.4781C26.4257 31.872 26.1922 29.3517 25.5847 26.979H42.0455C42.6506 29.3516 42.8864 31.8744 42.6816 34.4781Z" fill="url(#paint4_linear_4077_32110)"/>
<path d="M55.0147 34.478C54.1381 45.6599 45.0381 54.674 33.849 55.4435C29.4254 55.7485 25.2494 54.7884 21.6404 52.8946C28.4129 49.331 33.2273 42.4583 33.8537 34.4781C34.0562 31.872 33.8227 29.3517 33.2129 26.979H54.3738C54.9837 29.3515 55.2172 31.8718 55.0147 34.478Z" fill="url(#paint5_linear_4077_32110)"/>
<path d="M55.0147 34.478C54.1381 45.6599 45.0381 54.674 33.849 55.4435C29.4254 55.7485 25.2494 54.7884 21.6404 52.8946C28.4129 49.331 33.2273 42.4583 33.8537 34.4781C34.0562 31.872 33.8227 29.3517 33.2129 26.979H54.3738C54.9837 29.3515 55.2172 31.8718 55.0147 34.478Z" fill="url(#paint6_linear_4077_32110)"/>
<path d="M55.0156 34.4781C54.5323 40.6456 51.5469 46.1544 47.0893 49.982L25.9858 28.8785C25.8798 28.2362 25.7462 27.602 25.5872 26.979H54.3753C54.985 29.3516 55.2185 31.872 55.0156 34.4781Z" fill="url(#paint7_linear_4077_32110)"/>
<path d="M54.1633 28.8143H25.9207C24.9071 28.8143 24.0854 27.9926 24.0854 26.979V22.9007C24.0854 21.8871 24.9071 21.0654 25.9207 21.0654H54.1633C55.1769 21.0654 55.9986 21.8871 55.9986 22.9007V26.979C55.9986 27.9926 55.1769 28.8143 54.1633 28.8143Z" fill="url(#paint8_linear_4077_32110)"/>
<path d="M39.1414 21.0654H25.9207C24.9071 21.0654 24.0854 21.8871 24.0854 22.9007V26.979C24.0854 27.9926 24.9071 28.8143 25.9207 28.8143H39.1414V21.0654Z" fill="url(#paint9_linear_4077_32110)"/>
<path d="M25.0322 48.0566C25.0283 43.9532 21.7009 40.6279 17.5966 40.6279C13.9821 40.6279 10.9712 43.2074 10.3012 46.6256C9.77485 46.4159 9.20123 46.2994 8.60018 46.2994C6.05947 46.2994 4 48.3589 4 50.8994C4 53.44 6.05947 55.4995 8.60008 55.4995H17.5966H24.2004C26.2815 55.4995 27.9685 53.8124 27.9685 51.7314C27.9685 49.9363 26.7128 48.4353 25.0322 48.0566Z" fill="url(#paint10_linear_4077_32110)"/>
<path d="M8.60008 55.499C11.1406 55.499 13.2002 53.4395 13.2002 50.8989C13.2002 48.3584 11.1406 46.2988 8.60008 46.2988C6.05953 46.2988 4 48.3584 4 50.8989C4 53.4395 6.05953 55.499 8.60008 55.499Z" fill="url(#paint11_linear_4077_32110)"/>
<path d="M25.0327 48.0571C24.765 47.9947 24.4872 47.9634 24.2014 47.9634C22.1199 47.9634 20.4326 49.6506 20.4326 51.7322C20.4326 52.7655 20.8483 53.7003 21.5218 54.3805C20.3834 55.0902 19.0378 55.4993 17.597 55.4993C13.4898 55.4993 10.1614 52.1708 10.1614 48.0636C10.1614 43.9564 13.4898 40.6279 17.597 40.6279C21.7026 40.628 25.0294 43.9532 25.0327 48.0571Z" fill="url(#paint12_linear_4077_32110)"/>
<path d="M4 50.8994C4 53.44 6.05947 55.4994 8.60008 55.4994H17.5966H24.2004C26.2815 55.4994 27.9685 53.8124 27.9685 51.7313C27.9685 50.9317 27.7182 50.1913 27.2932 49.5815H4.1926C4.0679 49.9992 4 50.4413 4 50.8994H4Z" fill="url(#paint13_linear_4077_32110)"/>
<path d="M8.18063 43.8759C9.70101 43.8759 10.9335 42.6434 10.9335 41.123C10.9335 39.6026 9.70101 38.3701 8.18063 38.3701C6.66025 38.3701 5.42773 39.6026 5.42773 41.123C5.42773 42.6434 6.66025 43.8759 8.18063 43.8759Z" fill="url(#paint14_linear_4077_32110)"/>
<path d="M12.6148 36.5344C13.6003 36.5344 14.3991 35.7355 14.3991 34.7501C14.3991 33.7647 13.6003 32.9658 12.6148 32.9658C11.6294 32.9658 10.8306 33.7647 10.8306 34.7501C10.8306 35.7355 11.6294 36.5344 12.6148 36.5344Z" fill="url(#paint15_linear_4077_32110)"/>
<path d="M22.9881 28.2208C21.5155 25.3207 19.084 22.9899 16.1099 21.6473C15.7804 21.4985 15.7804 21.027 16.1099 20.8783C19.084 19.5357 21.5155 17.2048 22.9881 14.3048C23.1449 13.9961 23.5847 13.9961 23.7415 14.3048C25.2141 17.2048 27.6456 19.5357 30.6196 20.8783C30.9492 21.027 30.9492 21.4986 30.6196 21.6473C27.6456 22.9899 25.2141 25.3207 23.7415 28.2208C23.5847 28.5295 23.1448 28.5295 22.9881 28.2208Z" fill="url(#paint16_linear_4077_32110)"/>
<path d="M33.8316 40.7698C32.8994 38.9339 31.36 37.4584 29.4773 36.6084C29.2686 36.5142 29.2686 36.2157 29.4773 36.1215C31.36 35.2716 32.8993 33.796 33.8316 31.9601C33.9308 31.7646 34.2093 31.7646 34.3085 31.9601C35.2407 33.796 36.7801 35.2715 38.6628 36.1215C38.8715 36.2157 38.8715 36.5142 38.6628 36.6084C36.7801 37.4583 35.2408 38.9339 34.3085 40.7698C34.2093 40.9653 33.9309 40.9653 33.8316 40.7698Z" fill="url(#paint17_linear_4077_32110)"/>
<defs>
<linearGradient id="paint0_linear_4077_32110" x1="37.3062" y1="14.627" x2="43.2881" y2="14.627" gradientUnits="userSpaceOnUse">
<stop stop-color="#AEFFD1"/>
<stop offset="1" stop-color="#57BE92"/>
</linearGradient>
<linearGradient id="paint1_linear_4077_32110" x1="40.0421" y1="17.2984" x2="40.0421" y2="22.5327" gradientUnits="userSpaceOnUse">
<stop stop-color="#09A76D" stop-opacity="0"/>
<stop offset="0.4498" stop-color="#07A069" stop-opacity="0.45"/>
<stop offset="1" stop-color="#02905D"/>
</linearGradient>
<linearGradient id="paint2_linear_4077_32110" x1="18.5426" y1="35.8276" x2="56.9992" y2="44.7022" gradientUnits="userSpaceOnUse">
<stop stop-color="#FEE45A"/>
<stop offset="1" stop-color="#FEA613"/>
</linearGradient>
<linearGradient id="paint3_linear_4077_32110" x1="43.8678" y1="38.8312" x2="60.94" y2="36.4491" gradientUnits="userSpaceOnUse">
<stop stop-color="#FEA613" stop-opacity="0"/>
<stop offset="1" stop-color="#E94444"/>
</linearGradient>
<linearGradient id="paint4_linear_4077_32110" x1="32.6862" y1="47.311" x2="36.1006" y2="60.0954" gradientUnits="userSpaceOnUse">
<stop stop-color="#FEA613" stop-opacity="0"/>
<stop offset="1" stop-color="#E94444"/>
</linearGradient>
<linearGradient id="paint5_linear_4077_32110" x1="36.8741" y1="38.8866" x2="21.7076" y2="24.8317" gradientUnits="userSpaceOnUse">
<stop stop-color="#FEA613" stop-opacity="0"/>
<stop offset="1" stop-color="#E94444"/>
</linearGradient>
<linearGradient id="paint6_linear_4077_32110" x1="38.3702" y1="40.6855" x2="45.711" y2="55.8255" gradientUnits="userSpaceOnUse">
<stop stop-color="#FEA613" stop-opacity="0"/>
<stop offset="1" stop-color="#E94444"/>
</linearGradient>
<linearGradient id="paint7_linear_4077_32110" x1="40.3372" y1="36.1268" x2="40.3372" y2="24.2715" gradientUnits="userSpaceOnUse">
<stop stop-color="#FEA613" stop-opacity="0"/>
<stop offset="1" stop-color="#E94444"/>
</linearGradient>
<linearGradient id="paint8_linear_4077_32110" x1="40.042" y1="21.6772" x2="40.042" y2="29.528" gradientUnits="userSpaceOnUse">
<stop stop-color="#AEFFD1"/>
<stop offset="1" stop-color="#57BE92"/>
</linearGradient>
<linearGradient id="paint9_linear_4077_32110" x1="33.0713" y1="25.6065" x2="27.8373" y2="21.5281" gradientUnits="userSpaceOnUse">
<stop stop-color="#09A76D" stop-opacity="0"/>
<stop offset="0.4498" stop-color="#07A069" stop-opacity="0.45"/>
<stop offset="1" stop-color="#02905D"/>
</linearGradient>
<linearGradient id="paint10_linear_4077_32110" x1="15.9843" y1="48.2878" x2="15.9843" y2="59.8174" gradientUnits="userSpaceOnUse">
<stop stop-color="#EAF9FA"/>
<stop offset="1" stop-color="#B3DAFE"/>
</linearGradient>
<linearGradient id="paint11_linear_4077_32110" x1="8.91463" y1="50.289" x2="12.9398" y2="42.4854" gradientUnits="userSpaceOnUse">
<stop stop-color="#7BACDF" stop-opacity="0"/>
<stop offset="1" stop-color="#7BACDF"/>
</linearGradient>
<linearGradient id="paint12_linear_4077_32110" x1="19.939" y1="46.6897" x2="25.037" y2="43.6989" gradientUnits="userSpaceOnUse">
<stop stop-color="#7BACDF" stop-opacity="0"/>
<stop offset="1" stop-color="#7BACDF"/>
</linearGradient>
<linearGradient id="paint13_linear_4077_32110" x1="15.9843" y1="52.6208" x2="15.9843" y2="58.2067" gradientUnits="userSpaceOnUse">
<stop stop-color="#7BACDF" stop-opacity="0"/>
<stop offset="1" stop-color="#7BACDF"/>
</linearGradient>
<linearGradient id="paint14_linear_4077_32110" x1="5.93753" y1="38.8799" x2="10.7469" y2="43.6893" gradientUnits="userSpaceOnUse">
<stop stop-color="#EAF9FA"/>
<stop offset="1" stop-color="#B3DAFE"/>
</linearGradient>
<linearGradient id="paint15_linear_4077_32110" x1="11.161" y1="33.2963" x2="14.2782" y2="36.4135" gradientUnits="userSpaceOnUse">
<stop stop-color="#EAF9FA"/>
<stop offset="1" stop-color="#B3DAFE"/>
</linearGradient>
<linearGradient id="paint16_linear_4077_32110" x1="23.3647" y1="16.3468" x2="23.3647" y2="32.0889" gradientUnits="userSpaceOnUse">
<stop stop-color="#BEC6ED"/>
<stop offset="1" stop-color="#925CB4"/>
</linearGradient>
<linearGradient id="paint17_linear_4077_32110" x1="34.0701" y1="33.2528" x2="34.0701" y2="43.2186" gradientUnits="userSpaceOnUse">
<stop stop-color="#BEC6ED"/>
<stop offset="1" stop-color="#925CB4"/>
</linearGradient>
</defs>
</svg>
