<svg width="47" height="21" viewBox="0 0 47 21" fill="none" xmlns="http://www.w3.org/2000/svg">
<path d="M13.7344 5.12695H11.7812C8.54521 5.12695 5.92188 6.24624 5.92188 7.62695V15.9603C5.92188 17.341 8.54521 18.4603 11.7813 18.4603H27.4062C30.6423 18.4603 33.2656 17.341 33.2656 15.9603V15.127H29.3594V15.9603C29.3594 16.4205 28.4849 16.7936 27.4062 16.7936H11.7813C10.7026 16.7936 9.82812 16.4205 9.82812 15.9603V7.62695C9.82812 7.16672 10.7026 6.79362 11.7812 6.79362H13.7344V5.12695Z" fill="#6759FF"/>
<path fill-rule="evenodd" clip-rule="evenodd" d="M41.0589 5.96028C41.0717 6.02729 41.0781 6.09474 41.0781 6.16248V12.6269C41.0781 14.0077 38.4548 15.1269 35.2188 15.1269H19.5938C16.3577 15.1269 13.7344 14.0077 13.7344 12.6269V4.29361C13.7344 2.9129 16.3577 1.79361 19.5938 1.79361H30.8386C30.9973 1.79361 31.1554 1.79636 31.3125 1.80179V1.79361L31.3334 1.80253C32.7062 1.85215 34.0002 2.10702 34.9818 2.52584L39.362 4.39471C40.3436 4.81353 40.9409 5.36565 41.0572 5.95135L41.0781 5.96028H41.0589ZM35.2188 13.4603H19.5938C18.5151 13.4603 17.6406 13.0872 17.6406 12.6269V4.29361C17.6406 3.83337 18.5151 3.46028 19.5938 3.46028H30.8386C30.9997 3.46028 31.1588 3.46877 31.3125 3.48518V4.29361C31.3125 5.21408 33.0614 5.96028 35.2188 5.96028H37.1135C37.152 6.02587 37.1719 6.09373 37.1719 6.16248V12.6269C37.1719 13.0872 36.2974 13.4603 35.2188 13.4603Z" fill="#6759FF"/>
</svg>
