<svg width="24" height="24" viewBox="0 0 24 24" fill="none" xmlns="http://www.w3.org/2000/svg">
<g clip-path="url(#clip0_4077_32871)">
<path d="M23.4 11.4001H21.6C21.5892 11.4001 21.5804 11.4056 21.5699 11.406C21.266 6.58015 17.4199 2.73384 12.5941 2.42996C12.5945 2.41941 12.6 2.41062 12.6 2.40007V0.600073C12.6 0.268726 12.3313 0 11.9999 0C11.6686 0 11.4001 0.268726 11.4001 0.600073V2.40007C11.4001 2.41062 11.4056 2.41963 11.406 2.42996C6.58015 2.73384 2.73384 6.58015 2.42996 11.406C2.41963 11.4056 2.41062 11.4001 2.40007 11.4001H0.600073C0.268726 11.4001 0 11.6686 0 11.9999C0 12.3313 0.268726 12.6 0.600073 12.6H2.40007C2.41062 12.6 2.41963 12.5945 2.42996 12.5941C2.73384 17.4199 6.58015 21.266 11.406 21.5699C11.4056 21.5807 11.4001 21.5895 11.4001 21.6V23.4C11.4001 23.7313 11.6686 24.0001 11.9999 24.0001C12.3313 24.0001 12.6 23.7313 12.6 23.4V21.6C12.6 21.5892 12.5945 21.5804 12.5941 21.5699C17.4199 21.266 21.266 17.4199 21.5699 12.5941C21.5807 12.5945 21.5895 12.6 21.6 12.6H23.4C23.7313 12.6 24.0001 12.3313 24.0001 11.9999C24.0001 11.6686 23.7313 11.4001 23.4 11.4001ZM11.9999 20.4001C7.36084 20.4001 3.6 16.6392 3.6 11.9999C3.6 7.36084 7.36084 3.6 11.9999 3.6C16.6392 3.6 20.4001 7.36084 20.4001 11.9999C20.3946 16.637 16.637 20.3946 11.9999 20.4001Z" fill="black"/>
<path d="M11.9999 7.2002C9.34888 7.2002 7.19995 9.34912 7.19995 12.0001C7.19995 14.6511 9.34888 16.8003 11.9999 16.8003C14.6509 16.8003 16.8 14.6511 16.8 12.0001C16.7972 9.35044 14.6498 7.20305 11.9999 7.2002ZM11.9999 15.6001C10.0118 15.6001 8.39988 13.9884 8.39988 12.0001C8.39988 10.012 10.0118 8.40012 11.9999 8.40012C13.9882 8.40012 15.5999 10.012 15.5999 12.0001C15.5977 13.9875 13.9873 15.5979 11.9999 15.6001Z" fill="black"/>
</g>
<defs>
<clipPath id="clip0_4077_32871">
<rect width="24" height="24" fill="white"/>
</clipPath>
</defs>
</svg>
