<svg width="66" height="67" viewBox="0 0 66 67" fill="none" xmlns="http://www.w3.org/2000/svg">
<path d="M65.0933 32.808V33.4606C65.0933 35.791 64.8137 37.935 64.4408 40.1722L32.7471 8.47847L24.3576 0.275391H32.5607C50.5515 0.275391 65.0933 14.8172 65.0933 32.808Z" fill="white"/>
<path opacity="0.7" d="M32.747 8.47842L0.400787 41.5704V3.72437C0.400787 1.76681 1.98548 0.182129 3.94303 0.182129H24.4507L32.747 8.47842Z" fill="white"/>
<path d="M60.1527 45.7652C61.2713 46.8838 61.4577 48.5617 60.712 49.9599C59.9663 51.265 59.0341 52.57 58.1019 53.7818C52.1361 61.2392 42.9076 66.0864 32.6538 66.0864H3.84977C1.98544 66.0864 0.400757 64.595 0.400757 62.6374V52.7564C0.400757 51.8243 0.773624 50.9853 1.33292 50.3328L7.11236 44.3669L32.747 18.2662L60.1527 45.7652Z" fill="white"/>
</svg>
