<svg width="31" height="28" viewBox="0 0 31 28" fill="none" xmlns="http://www.w3.org/2000/svg">
<path opacity="0.3" fill-rule="evenodd" clip-rule="evenodd" d="M24.1291 10.4643C24.1291 12.7129 24.1117 13.3565 24.0397 13.7693C23.725 15.5744 22.4147 17.0959 20.6519 17.7034C19.8413 17.9828 19.664 17.9907 14.2707 17.9907H9.20459L9.22865 19.1413C9.24922 20.1286 9.27089 20.3474 9.38111 20.6826C9.55029 21.1973 10.0192 21.889 10.4204 22.2159C10.8028 22.5273 11.4532 22.848 11.8833 22.937C12.0947 22.9808 13.9436 23.0009 17.7499 23.0009C23.5923 23.0009 23.6716 23.0042 24.1926 23.2666C24.3396 23.3406 25.5325 24.1672 26.8433 25.1034C28.1542 26.0397 29.3054 26.8539 29.4015 26.913C29.8021 27.159 30.3936 26.9831 30.6109 26.5535C30.7075 26.3625 30.7126 25.8895 30.6983 18.3694L30.6832 10.3881L30.5262 9.95809C30.1617 8.96014 29.3595 8.16632 28.3862 7.84048C28.0282 7.7207 27.8771 7.71103 26.0662 7.69215L24.1291 7.672V10.4643Z" fill="#2C2B46"/>
<path fill-rule="evenodd" clip-rule="evenodd" d="M3.36024 1.03008C2.81028 1.18837 2.28777 1.49842 1.87466 1.91153C1.43068 2.35551 1.1592 2.83614 0.999337 3.46095C0.88754 3.89812 0.884277 4.13412 0.884277 11.7528C0.884277 19.2771 0.888647 19.6028 0.992287 19.7976C1.14912 20.0924 1.4862 20.2733 1.82596 20.2451C2.07565 20.2244 2.30437 20.0749 4.65146 18.3989C6.05606 17.3958 7.34945 16.5069 7.52568 16.4236L7.84609 16.2721L13.7301 16.2417C20.2554 16.2081 19.7759 16.2375 20.6046 15.8212C21.096 15.5745 21.77 14.8776 22.0222 14.3554C22.3876 13.599 22.3793 13.7604 22.3803 7.38777C22.3814 0.920968 22.4078 1.33949 21.9796 1.05339L21.7816 0.921143L12.7457 0.925279C4.36688 0.929124 3.68438 0.936756 3.36024 1.03008ZM17.702 5.79104C18.2634 6.20705 18.2657 6.93073 17.7068 7.27154C17.521 7.38485 17.4027 7.38736 12.2095 7.38753L6.90208 7.38777L6.70412 7.25552C6.34793 7.0176 6.20211 6.52578 6.38411 6.176C6.49707 5.95893 6.7209 5.76027 6.9209 5.69969C7.01324 5.67172 9.43974 5.65337 12.3131 5.65896C17.5149 5.6691 17.5382 5.66968 17.702 5.79104ZM17.702 9.86909C18.2634 10.2851 18.2657 11.0088 17.7068 11.3496C17.521 11.4629 17.4027 11.4654 12.2095 11.4656L6.90208 11.4658L6.70412 11.3336C6.34793 11.0956 6.20211 10.6038 6.38411 10.2541C6.49707 10.037 6.7209 9.83833 6.9209 9.77774C7.01324 9.74977 9.43974 9.73142 12.3131 9.73701C17.5149 9.74715 17.5382 9.74774 17.702 9.86909Z" fill="#2C2B46"/>
</svg>
