<?xml version="1.0" encoding="iso-8859-1"?>
<!-- Uploaded to: SVG Repo, www.svgrepo.com, Generator: SVG Repo Mixer Tools -->
<svg fill="#000000" height="800px" width="800px" version="1.1" id="Layer_1" xmlns="http://www.w3.org/2000/svg" xmlns:xlink="http://www.w3.org/1999/xlink" 
	 viewBox="0 0 512 512" xml:space="preserve"> 
<g transform="translate(1 1)">
	<g>
		<g>
			<path d="M186.733,212.333c-5.12,0-8.533,3.413-8.533,8.533v153.6c0,5.12,3.413,8.533,8.533,8.533h2.56h131.413h2.56
				c5.12,0,8.533-3.413,8.533-8.533v-153.6c0-5.12-3.413-8.533-8.533-8.533H186.733z M314.733,229.4v117.928
				c-8.22-10.178-19.038-19.756-31.649-25.863c8.974-7.771,14.582-19.283,14.582-32.332c0-23.893-18.773-42.667-42.667-42.667
				s-42.667,18.773-42.667,42.667c0,13.052,5.61,24.567,14.588,32.337c-12.716,6.172-23.564,15.888-31.655,26.185V229.4H314.733z
				 M229.4,289.133c0-14.507,11.093-25.6,25.6-25.6c14.507,0,25.6,11.093,25.6,25.6c0,14.507-11.093,25.6-25.6,25.6
				C240.493,314.733,229.4,303.64,229.4,289.133z M202.947,365.933c10.24-17.067,31.573-34.133,52.907-34.133
				s41.813,17.067,52.053,34.133H202.947z"/>
			<path d="M306.2,425.667c5.12,0,8.533-3.413,8.533-8.533s-3.413-8.533-8.533-8.533H203.8c-5.12,0-8.533,3.413-8.533,8.533
				s3.413,8.533,8.533,8.533H306.2z"/>
			<path d="M144.067,459.8c0,5.12,3.413,8.533,8.533,8.533h204.8c5.12,0,8.533-3.413,8.533-8.533c0-5.12-3.413-8.533-8.533-8.533
				H152.6C147.48,451.267,144.067,454.68,144.067,459.8z"/>
			<path d="M400.067,134.68H329.24L390.68,11.8c1.707-2.56,1.707-5.973,0-8.533C388.973,0.707,385.56-1,383-1h-42.667
				c-3.413,0-5.973,1.707-7.68,4.267L266.947,134.68h-5.248L202.947,4.12C202.093,0.707,198.68-1,195.267-1H152.6
				c-2.56,0-5.973,1.707-6.827,4.267c-1.707,1.707-2.56,5.12-0.853,7.68l56.064,124.587h-91.051c-5.12,0-8.533,3.413-8.533,8.533
				v358.4c0,5.12,3.413,8.533,8.533,8.533h290.133c5.12,0,8.533-3.413,8.533-9.387v-358.4
				C408.6,138.093,405.187,134.68,400.067,134.68z M345.453,16.067h23.893L310.04,134.68h-23.893L345.453,16.067z M190.147,16.067
				l57.605,129.611c0.096,0.629,0.234,1.239,0.422,1.803l10.24,22.187H234.52l-12.8-29.013c-0.266-1.066-0.782-1.965-1.47-2.698
				L165.4,16.067H190.147z M391.533,493.933H118.467V152.6h90.197l7.68,17.067h-21.077c-5.12,0-8.533,3.413-8.533,8.533
				s3.413,8.533,8.533,8.533H229.4h42.667h42.667c5.12,0,8.533-3.413,8.533-8.533s-3.413-8.533-8.533-8.533h-37.291l-7.68-17.067
				h2.304h42.667h76.8V493.933z"/>
		</g>
	</g>
</g>
</svg>