<svg width="34" height="34" viewBox="0 0 34 34" fill="none" xmlns="http://www.w3.org/2000/svg">
<g clip-path="url(#clip0_4077_32956)">
<path fill-rule="evenodd" clip-rule="evenodd" d="M16.965 24.6048C18.762 26.2201 21.1752 27.2 23.8001 27.2C29.4374 27.2 34.0001 22.7143 34.0001 17.1973C34.0001 11.6635 29.4374 7.17773 23.8001 7.17773C21.1752 7.17773 18.762 8.15734 16.965 9.7729C14.9038 11.6118 13.6001 14.2585 13.6001 17.1973C13.6003 20.1362 14.9038 22.7831 16.965 24.6048Z" fill="#E9B040"/>
<path fill-rule="evenodd" clip-rule="evenodd" d="M32.4888 23.0339C32.4888 22.8297 32.6523 22.6665 32.8564 22.6665C33.081 22.6665 33.2443 22.8299 33.2443 23.0339C33.2443 23.2589 33.0808 23.4221 32.8564 23.4221C32.6523 23.4221 32.4888 23.2589 32.4888 23.0339ZM32.8564 23.3406C33.02 23.3406 33.1626 23.1974 33.1626 23.0342C33.1626 22.871 33.0197 22.7485 32.8564 22.7485C32.7131 22.7485 32.5705 22.871 32.5705 23.0342C32.5705 23.1974 32.7134 23.3406 32.8564 23.3406ZM32.8156 23.218H32.7338V22.8708H32.8766C32.8973 22.8708 32.9382 22.8708 32.9584 22.8914C32.9993 22.9116 32.9993 22.9323 32.9993 22.9731C32.9993 23.014 32.9791 23.0549 32.9382 23.0549L33.02 23.2183H32.9175L32.8766 23.075H32.8156V23.218V23.0138H32.8973C32.9175 23.0138 32.9175 22.9931 32.9175 22.9729C32.9175 22.9522 32.9175 22.9522 32.8973 22.9321H32.8156V23.218Z" fill="#E9B040"/>
<path fill-rule="evenodd" clip-rule="evenodd" d="M20.3471 16.132C20.3119 15.7711 20.2414 15.4275 20.1709 15.0664H13.9346C14.0051 14.7055 14.1108 14.3619 14.2163 14.018H19.8715C19.7487 13.6562 19.6076 13.3006 19.4487 12.9524H14.6569C14.8332 12.5884 15.0272 12.2328 15.2383 11.8869H18.8499C18.6176 11.5198 18.3585 11.1695 18.0749 10.8385H16.0135C16.3324 10.4586 16.6798 10.1024 17.0529 9.7729C15.2385 8.17454 12.8425 7.17773 10.2 7.17773C4.5803 7.17773 0 11.6635 0 17.1973C0 22.7143 4.5803 27.2 10.2 27.2C12.8425 27.2 15.2383 26.2201 17.0529 24.6048C17.4203 24.281 17.762 23.9305 18.0749 23.5562H16.0135C15.7316 23.2125 15.485 22.8689 15.2383 22.4906H18.8499C19.077 22.1508 19.2773 21.7946 19.4489 21.4251H14.6569C14.4983 21.0814 14.3399 20.7377 14.2163 20.3765H19.8715C19.9946 20.0328 20.083 19.6722 20.1707 19.3109C20.2412 18.9672 20.3117 18.6066 20.3469 18.2453C20.3826 17.8969 20.4003 17.5469 20.4 17.1967C20.4 16.8365 20.3824 16.4756 20.3471 16.132Z" fill="#CC2131"/>
<path fill-rule="evenodd" clip-rule="evenodd" d="M32.4888 19.6441C32.4888 19.4255 32.6523 19.2666 32.8564 19.2666C33.081 19.2666 33.2443 19.4258 33.2443 19.6441C33.2443 19.8431 33.0808 20.0222 32.8564 20.0222C32.6523 20.0222 32.4888 19.8429 32.4888 19.6441ZM32.8564 19.9224C33.02 19.9224 33.1626 19.8031 33.1626 19.6441C33.1626 19.4852 33.0197 19.3658 32.8564 19.3658C32.7131 19.3658 32.5705 19.4852 32.5705 19.6441C32.5705 19.8031 32.7134 19.9224 32.8564 19.9224ZM32.8156 19.8031H32.7338V19.485H32.9584C32.9993 19.5051 32.9993 19.5449 32.9993 19.5847C32.9993 19.6044 32.9791 19.6441 32.9382 19.6643L33.02 19.8033H32.9175L32.8766 19.6839H32.8156V19.8031V19.6243H32.8564C32.8766 19.6243 32.8973 19.6243 32.8973 19.6041C32.9175 19.6041 32.9175 19.5845 32.9175 19.5643C32.9175 19.5643 32.9175 19.5447 32.8973 19.5447C32.8973 19.5245 32.8766 19.5447 32.8564 19.5447H32.8156V19.8031Z" fill="white"/>
<path fill-rule="evenodd" clip-rule="evenodd" d="M13.5185 20.2523C13.1882 20.3445 12.9447 20.4001 12.7013 20.4001C12.1797 20.4001 11.8666 20.0492 11.8666 19.4217C11.8666 19.2926 11.884 19.1634 11.9014 19.0157L11.9709 18.5914L12.0231 18.2406L12.4926 15.2137H13.5359L13.4141 15.8782H14.0749L13.9184 16.9856H13.2576L12.9794 18.7943C12.962 18.8868 12.9621 18.942 12.9621 18.9789C12.9621 19.219 13.0664 19.3111 13.3271 19.3111C13.4489 19.3111 13.5531 19.2928 13.6574 19.2742L13.5185 20.2523ZM16.8919 20.2154C16.5094 20.3262 16.1617 20.3814 15.779 20.3814C14.5966 20.3814 13.9184 19.7169 13.9184 18.4068C13.9184 16.8746 14.7183 15.7672 15.831 15.7672C16.7178 15.7672 17.2916 16.3948 17.2916 17.3727C17.2916 17.7053 17.2568 18.019 17.17 18.4619H14.9965C14.9791 18.5358 14.9791 18.5727 14.9791 18.6097C14.9791 19.1264 15.3094 19.3847 15.9354 19.3847C16.3353 19.3847 16.683 19.2926 17.0657 19.1082L16.8919 20.2154ZM16.2485 17.5761V17.3545C16.2485 16.9854 16.0571 16.7823 15.7268 16.7823C15.3789 16.7823 15.1356 17.0591 15.0312 17.5759H16.2485V17.5761ZM5.17212 20.3075H4.09404L4.72006 16.118L3.31167 20.3075H2.56409L2.47711 16.1365L1.81631 20.3075H0.755615L1.60756 14.8629H3.1899L3.22469 18.2223L4.28538 14.8629H6.02428L5.17212 20.3075ZM7.79796 18.3329C7.69359 18.3142 7.6588 18.3142 7.58922 18.3142C6.9632 18.3142 6.6503 18.5725 6.6503 18.9787C6.6503 19.2557 6.80685 19.4403 7.05018 19.4403C7.57183 19.4403 7.78036 18.9787 7.79796 18.3329ZM8.66731 20.3075H7.72838L7.74578 19.8463C7.50225 20.1967 7.17195 20.3814 6.59811 20.3814C6.07646 20.3814 5.6244 19.8833 5.6244 19.1634C5.6244 18.9605 5.65919 18.7761 5.71137 18.5914C5.88512 17.9082 6.52853 17.484 7.51964 17.4653C7.64141 17.4653 7.83255 17.4653 8.0065 17.484C8.04108 17.3362 8.04108 17.2806 8.04108 17.1885C8.04108 16.8931 7.81515 16.8008 7.3109 16.8008C6.99799 16.8008 6.65009 16.8562 6.40677 16.9485L6.25021 16.9854L6.18063 17.0037L6.33719 16.007C6.84144 15.8408 7.20653 15.7672 7.60662 15.7672C8.54554 15.7672 9.04979 16.2286 9.04979 17.0775C9.04979 17.2991 9.06719 17.4653 8.99761 17.9451L8.75428 19.5324L8.71949 19.8094L8.7021 20.031L8.6847 20.1787L8.66731 20.3075ZM22.1432 15.9149C22.4561 15.9149 22.7344 16.0072 23.1169 16.2101L23.308 15.0288C23.2037 14.9734 23.1689 14.9734 23.0299 14.918L22.5954 14.7888C22.4563 14.7519 22.2825 14.7334 22.091 14.7334C21.5517 14.7334 21.2388 14.7519 20.9087 14.955C20.7348 15.0842 20.5087 15.2504 20.2651 15.5456L20.126 15.5087L19.0131 16.3392L19.0655 15.8778H17.9176L17.2398 20.3073H18.3355L18.7352 17.9267C18.7352 17.9267 18.8919 17.5941 18.9613 17.4837C19.17 17.2068 19.3438 17.2068 19.5697 17.2068H19.6569C19.6204 17.4881 19.6029 17.7718 19.6045 18.0557C19.6045 19.4953 20.3695 20.3998 21.5519 20.3998C21.8477 20.3998 22.1088 20.3629 22.5085 20.2521L22.7 18.9972C22.3523 19.2001 22.0392 19.2924 21.7783 19.2924C21.1351 19.2924 20.7522 18.7756 20.7522 17.9636C20.7518 16.7638 21.3258 15.9149 22.1432 15.9149ZM31.3759 14.8629L31.1327 16.4132C30.8718 15.9888 30.5587 15.7857 30.1414 15.7857C29.5674 15.7857 29.0286 16.1363 28.6981 16.8008V16.7825L28.0027 16.3394L28.0722 15.878H26.9072L26.2464 20.3075H27.3245L27.6898 17.9269C27.6898 17.9269 27.9679 17.5943 28.0374 17.484C28.2114 17.2624 28.3851 17.2252 28.5243 17.207C28.4027 17.5761 28.3332 18.019 28.3332 18.5175C28.3332 19.625 28.872 20.3631 29.6718 20.3631C30.0719 20.3631 30.3848 20.2154 30.6803 19.8646L30.6283 20.3075H31.6544L32.489 14.8629H31.3759ZM30.0373 19.2557C29.672 19.2557 29.4808 18.9605 29.4808 18.3881C29.4808 17.5205 29.8285 16.8931 30.3326 16.8931C30.7151 16.8931 30.9066 17.207 30.9066 17.7607C30.9066 18.6466 30.5589 19.2557 30.0373 19.2557ZM25.0123 18.3329C24.908 18.3142 24.8732 18.3142 24.8036 18.3142C24.1772 18.3142 23.8643 18.5725 23.8643 18.9787C23.8643 19.2557 24.021 19.4403 24.2644 19.4403C24.786 19.4403 24.9947 18.9787 25.0123 18.3329ZM25.8817 20.3075H24.9252L24.9599 19.8463C24.7166 20.1967 24.3859 20.3814 23.8125 20.3814C23.2732 20.3814 22.804 19.9015 22.804 19.1634C22.804 18.1115 23.5514 17.4655 24.7338 17.4655C24.8558 17.4655 25.0467 17.4655 25.2035 17.4842C25.2383 17.3365 25.2559 17.2809 25.2559 17.1888C25.2559 16.8933 25.0297 16.801 24.5081 16.801C24.2124 16.801 23.8473 16.8564 23.604 16.9487L23.4648 16.9856L23.3952 17.0039L23.5516 16.0072C24.056 15.8411 24.4213 15.7674 24.821 15.7674C25.7599 15.7674 26.2468 16.2288 26.2468 17.0777C26.2468 17.2993 26.2816 17.4655 26.1948 17.9454L25.9687 19.5327L25.9339 19.8096L25.8991 20.0312L25.8819 20.1789V20.3075H25.8817ZM10.945 16.8192C11.1538 16.8192 11.4493 16.8377 11.7624 16.8931L11.919 15.8595C11.6058 15.8226 11.1886 15.7672 10.945 15.7672C9.728 15.7672 9.32812 16.4686 9.32812 17.2806C9.32812 17.8161 9.55405 18.2034 10.1453 18.4986C10.5799 18.7202 10.6495 18.7569 10.6495 18.9603C10.6495 19.2368 10.4236 19.4032 10.0061 19.4032C9.67581 19.4032 9.3627 19.3476 9.01501 19.2185L8.89324 20.2334L8.91043 20.2521L9.11917 20.2891C9.18875 20.3073 9.27573 20.326 9.39749 20.3442C9.65821 20.3629 9.88435 20.3812 10.0235 20.3812C11.2408 20.3812 11.745 19.8831 11.745 18.9046C11.745 18.2958 11.4667 17.9267 10.9276 17.6684C10.4582 17.4466 10.406 17.4101 10.406 17.2068C10.406 17.0039 10.6147 16.8192 10.945 16.8192Z" fill="#1B3771"/>
<path fill-rule="evenodd" clip-rule="evenodd" d="M23.688 14.6322L23.4961 15.8136C23.113 15.6105 22.8342 15.5183 22.5208 15.5183C21.7021 15.5183 21.1275 16.3673 21.1275 17.5671C21.1275 18.3978 21.5107 18.896 22.1553 18.896C22.4163 18.896 22.7299 18.8039 23.0782 18.6194L22.8867 19.8557C22.486 19.9665 22.2248 20.0221 21.9286 20.0221C20.7444 20.0221 20.0128 19.1176 20.0128 17.6597C20.0128 15.7215 21.023 14.3555 22.4686 14.3555C22.66 14.3555 22.834 14.3739 22.9734 14.4109L23.409 14.5217C23.5486 14.5771 23.5835 14.5955 23.688 14.6322ZM20.1696 15.4445H20.0651C19.6996 15.4445 19.4905 15.6291 19.1595 16.1642L19.264 15.4812H18.2711L17.5922 19.9111H18.6897C19.09 17.1978 19.1945 16.7364 19.717 16.7364H19.7867C19.8913 16.2011 20.0305 15.8134 20.2047 15.4627L20.1696 15.4445ZM13.8649 19.8557C13.5689 19.9665 13.325 20.0035 13.0813 20.0035C12.5239 20.0035 12.2103 19.6713 12.2103 19.0254C12.2103 18.9147 12.2277 18.7671 12.2451 18.6377L12.3148 18.1947L12.3671 17.8443L12.8373 14.8169H13.9172L13.7952 15.4814H14.3526L14.2132 16.5704H13.6558L13.3598 18.4163C13.3424 18.4902 13.3424 18.5458 13.3424 18.601C13.3424 18.8225 13.447 18.9149 13.7081 18.9149C13.8301 18.9149 13.9344 18.9149 14.0041 18.8779L13.8649 19.8557ZM9.66744 16.8841C9.66744 17.4381 9.91117 17.8254 10.4859 18.1209C10.9388 18.3424 11.0085 18.4161 11.0085 18.6007C11.0085 18.8777 10.8168 19.0068 10.3814 19.0068C10.0506 19.0068 9.75436 18.9516 9.40609 18.8408L9.24928 19.8557L9.30155 19.8744L9.49321 19.9113C9.5627 19.9296 9.65002 19.9483 9.78921 19.9483C10.0329 19.9852 10.242 19.9852 10.3814 19.9852C11.5308 19.9852 12.0709 19.5236 12.0709 18.5086C12.0709 17.8993 11.8446 17.5484 11.3047 17.2719C10.8344 17.0503 10.7822 16.9951 10.7822 16.792C10.7822 16.5522 10.9738 16.4414 11.3221 16.4414C11.5312 16.4414 11.8272 16.4599 12.1059 16.4968L12.2626 15.4816C11.984 15.4262 11.5486 15.3893 11.3047 15.3893C10.0854 15.3891 9.65002 16.0721 9.66744 16.8841ZM32.0307 19.9113H31.0029L31.0554 19.4866C30.7592 19.8188 30.4455 19.9665 30.0448 19.9665C29.2437 19.9665 28.7212 19.247 28.7212 18.1395C28.7212 16.6628 29.5399 15.4076 30.4976 15.4076C30.9332 15.4076 31.2466 15.6107 31.543 16.0167L31.7868 14.4663H32.8666L32.0307 19.9113ZM30.4281 18.8777C30.9334 18.8777 31.2817 18.2501 31.2817 17.3825C31.2817 16.8103 31.0898 16.5148 30.7067 16.5148C30.219 16.5148 29.8536 17.124 29.8536 17.9916C29.8536 18.5825 30.045 18.8777 30.4281 18.8777ZM17.2088 19.8188C16.8255 19.9483 16.4773 20.0035 16.0767 20.0035C14.8575 20.0035 14.2304 19.3207 14.2304 18.0101C14.2304 16.4966 15.0317 15.3706 16.129 15.3706C17.0346 15.3706 17.6092 15.9982 17.6092 16.9765C17.6092 17.3088 17.5743 17.6227 17.4698 18.0839H15.3105C15.2931 18.1395 15.2931 18.1765 15.2931 18.2134C15.2931 18.7302 15.6241 18.9885 16.2509 18.9885C16.6515 18.9885 16.9998 18.9147 17.3831 18.7115L17.2088 19.8188ZM16.5992 17.1794V16.958C16.5992 16.5889 16.4076 16.3858 16.0767 16.3858C15.7284 16.3858 15.4845 16.6628 15.38 17.1794H16.5992ZM5.50481 19.9113H4.42495L5.052 15.7212L3.64129 19.9113H2.89228L2.80516 15.7582L2.14347 19.9113H1.1333L1.98665 14.4663H3.55417L3.60645 17.8441L4.65126 14.4663H6.35817L5.50481 19.9113ZM8.20447 17.9362C8.09992 17.9362 8.04765 17.918 7.96053 17.918C7.35091 17.918 7.03749 18.1578 7.03749 18.6007C7.03749 18.8777 7.17688 19.0437 7.4206 19.0437C7.87341 19.0437 8.18704 18.6007 8.20447 17.9362ZM9.00555 19.9113H8.09972L8.11714 19.4497C7.83836 19.8188 7.47267 19.9852 6.96759 19.9852C6.37538 19.9852 5.97484 19.5053 5.97484 18.7854C5.97484 17.6966 6.67138 17.069 7.89063 17.069C8.0126 17.069 8.16941 17.0875 8.34345 17.1057C8.37829 16.9582 8.37829 16.9028 8.37829 16.8289C8.37829 16.5337 8.18663 16.4229 7.68155 16.4229C7.36813 16.4229 7.01965 16.4599 6.77592 16.5337L6.61911 16.5891L6.51457 16.6076L6.67138 15.6109C7.21131 15.4447 7.57701 15.3893 7.97775 15.3893C8.91822 15.3893 9.42331 15.8323 9.42331 16.6812C9.42331 16.9028 9.40588 17.069 9.33619 17.5673L9.09226 19.1365L9.05741 19.413L9.03999 19.6346L9.02256 19.801L9.00555 19.9113ZM25.4472 17.9362C25.325 17.9362 25.273 17.918 25.2035 17.918C24.5764 17.918 24.2626 18.1578 24.2626 18.6007C24.2626 18.8777 24.4196 19.0437 24.6633 19.0437C25.0989 19.0437 25.4296 18.6007 25.4472 17.9362ZM26.2483 19.9113H25.3427L25.3599 19.4497C25.0813 19.8188 24.7156 19.9852 24.2105 19.9852C23.6183 19.9852 23.2176 19.5053 23.2176 18.7854C23.2176 17.6966 23.9141 17.069 25.1334 17.069C25.2555 17.069 25.4123 17.0875 25.569 17.1057C25.6038 16.9582 25.6214 16.9028 25.6214 16.8289C25.6214 16.5337 25.4296 16.4229 24.9249 16.4229C24.6111 16.4229 24.2456 16.4599 24.0016 16.5337L23.8623 16.5891L23.7577 16.6076L23.9143 15.6109C24.4545 15.4447 24.8199 15.3893 25.2207 15.3893C26.1612 15.3893 26.6488 15.8323 26.6488 16.6812C26.6488 16.9028 26.6488 17.069 26.5619 17.5673L26.3354 19.1365L26.3005 19.413L26.2657 19.6346L26.2485 19.801V19.9113H26.2483ZM29.1742 15.4445H29.0697C28.7042 15.4445 28.4951 15.6291 28.1641 16.1642L28.2686 15.4812H27.2757L26.6138 19.9111H27.6936C28.0944 17.1978 28.1989 16.7364 28.7214 16.7364H28.7911C28.8957 16.2011 29.0348 15.8134 29.2091 15.4627L29.1742 15.4445Z" fill="white"/>
</g>
<defs>
<clipPath id="clip0_4077_32956">
<rect width="34" height="34" fill="white"/>
</clipPath>
</defs>
</svg>
