<svg width="60" height="60" viewBox="0 0 60 60" fill="none" xmlns="http://www.w3.org/2000/svg">
<path d="M48.91 55.8989H8.30521C7.33893 55.8989 6.55566 55.1155 6.55566 54.1493C6.55566 44.8151 14.1227 37.248 23.457 37.248H33.7582C43.0925 37.248 50.6595 44.8151 50.6595 54.1493C50.6595 55.1156 49.8763 55.8989 48.91 55.8989Z" fill="url(#paint0_linear_4077_32020)"/>
<path d="M50.6597 54.1493C50.6597 44.8151 43.0927 37.248 33.7584 37.248H23.4571C23.2857 37.248 23.1151 37.2514 22.9451 37.2564V46.0838L32.7601 55.8989H48.9101C49.8763 55.8989 50.6597 55.1156 50.6597 54.1493Z" fill="url(#paint1_linear_4077_32020)"/>
<path d="M41.6685 39.2109V55.899H48.9102C49.8765 55.899 50.6598 55.1157 50.6598 54.1495C50.6599 47.6732 47.0167 42.0487 41.6685 39.2109Z" fill="url(#paint2_linear_4077_32020)"/>
<path d="M6.55566 54.1492C6.55566 55.1155 7.33903 55.8988 8.30521 55.8988H48.91C49.8763 55.8988 50.6596 55.1155 50.6596 54.1493C50.6596 52.051 50.2762 50.0426 49.5773 48.189H7.63787C6.93914 50.0425 6.55566 52.0509 6.55566 54.1492Z" fill="url(#paint3_linear_4077_32020)"/>
<path d="M28.6078 42.9275C31.3102 42.9275 33.501 40.7367 33.501 38.0343C33.501 35.3319 31.3102 33.1411 28.6078 33.1411C25.9054 33.1411 23.7146 35.3319 23.7146 38.0343C23.7146 40.7367 25.9054 42.9275 28.6078 42.9275Z" fill="url(#paint4_linear_4077_32020)"/>
<path d="M28.6083 42.9265C31.3107 42.9265 33.5015 40.7358 33.5015 38.0333C33.5015 35.3309 31.3107 33.1401 28.6083 33.1401C25.9058 33.1401 23.7151 35.3309 23.7151 38.0333C23.7151 40.7358 25.9058 42.9265 28.6083 42.9265Z" fill="url(#paint5_linear_4077_32020)"/>
<path d="M28.6073 42.9253L20.8866 34.0845L20.4204 34.2438C19.2104 34.6576 18.5987 36.0051 19.0837 37.1884L22.5382 45.6158C22.7597 46.1561 23.4197 46.3592 23.9066 46.0369L28.6073 42.9253Z" fill="url(#paint6_linear_4077_32020)"/>
<path d="M28.6079 42.9253L36.3287 34.0845L36.7948 34.2438C38.0049 34.6576 38.6166 36.0051 38.1315 37.1884L34.677 45.6158C34.4556 46.1561 33.7956 46.3592 33.3087 46.0369L28.6079 42.9253Z" fill="url(#paint7_linear_4077_32020)"/>
<path d="M13.4502 23.7102C13.4502 21.7275 14.8266 20.0661 16.6759 19.6295C17.1702 19.5128 17.6428 19.8951 17.6428 20.4031V27.0173C17.6428 27.5252 17.1702 27.9075 16.6759 27.7909C14.8266 27.3543 13.4502 25.693 13.4502 23.7102Z" fill="url(#paint8_linear_4077_32020)"/>
<path d="M43.7637 23.7102C43.7637 21.7275 42.3873 20.0661 40.5379 19.6295C40.0436 19.5128 39.571 19.8951 39.571 20.4031V27.0173C39.571 27.5252 40.0436 27.9075 40.5379 27.7909C42.3873 27.3543 43.7637 25.693 43.7637 23.7102Z" fill="url(#paint9_linear_4077_32020)"/>
<path d="M28.6057 39.1568C21.9077 39.1568 16.478 33.7271 16.478 27.0291V20.8098C16.478 14.1119 21.9077 8.68213 28.6057 8.68213C35.3036 8.68213 40.7334 14.1118 40.7334 20.8098V27.0292C40.7334 33.7271 35.3036 39.1568 28.6057 39.1568Z" fill="url(#paint10_linear_4077_32020)"/>
<path d="M29.2759 30.0789H27.9359C26.8192 30.0789 25.9738 29.0698 26.1693 27.9704L26.9374 23.6523H30.2744L31.0424 27.9704C31.238 29.0698 30.3925 30.0789 29.2759 30.0789Z" fill="url(#paint11_linear_4077_32020)"/>
<path d="M23.231 26.319C22.2576 26.319 21.4685 25.5299 21.4685 24.5565V23.6526C21.4685 22.6792 22.2576 21.8901 23.231 21.8901C24.2044 21.8901 24.9935 22.6792 24.9935 23.6526V24.5565C24.9935 25.5299 24.2043 26.319 23.231 26.319Z" fill="url(#paint12_linear_4077_32020)"/>
<path d="M33.9827 26.319C33.0093 26.319 32.2202 25.5299 32.2202 24.5565V23.6526C32.2202 22.6792 33.0093 21.8901 33.9827 21.8901C34.9561 21.8901 35.7452 22.6792 35.7452 23.6526V24.5565C35.7452 25.5299 34.9561 26.319 33.9827 26.319Z" fill="url(#paint13_linear_4077_32020)"/>
<path d="M41.5382 20.6008V22.1007C41.5382 23.3637 39.9421 23.9697 39.1436 22.9912C38.8423 22.6221 38.6711 22.1316 38.7058 21.5674C38.8312 19.5221 37.7871 17.54 35.857 16.7783C35.8019 16.7559 35.7489 16.7365 35.6938 16.7171C36.276 15.4967 37.3986 13.8928 38.7221 12.5449C40.485 14.7554 41.5382 17.5553 41.5382 20.6008Z" fill="url(#paint14_linear_4077_32020)"/>
<path d="M21.5222 16.7171C21.4671 16.7365 21.4131 16.7559 21.358 16.7783C19.4279 17.54 18.3838 19.5221 18.5102 21.5674C18.5445 22.1318 18.3729 22.6225 18.0712 22.9917C17.2721 23.9696 15.6768 23.3639 15.6768 22.101V20.6008C15.6768 17.5553 16.73 14.7554 18.4929 12.5449C19.8164 13.8928 20.9389 15.4967 21.5222 16.7171Z" fill="url(#paint15_linear_4077_32020)"/>
<path d="M39.5348 45.7017H43.3413V40.7402C43.3413 39.5222 42.5105 38.4612 41.328 38.169L40.4086 37.9418C39.9642 37.832 39.5347 38.1684 39.5347 38.6261V45.7017H39.5348Z" fill="url(#paint16_linear_4077_32020)"/>
<path d="M17.6803 45.7017H13.8738V40.7402C13.8738 39.5222 14.7046 38.4612 15.8871 38.169L16.8065 37.9418C17.2508 37.832 17.6804 38.1684 17.6804 38.6261V45.7017H17.6803Z" fill="url(#paint17_linear_4077_32020)"/>
<path d="M43.0503 45.2266C43.4441 45.2266 43.7633 45.5458 43.7633 45.9396V55.4573C43.7633 55.7581 43.5207 56.0007 43.2209 56.0007H13.9929C13.6931 56.0007 13.4504 55.7581 13.4504 55.4573V45.9396C13.4504 45.5458 13.7697 45.2266 14.1635 45.2266H17.2661C17.6241 45.2266 17.9216 45.4927 17.9729 45.8469C18.1859 47.3188 18.875 48.6365 19.878 49.6404C21.0985 50.8609 22.7849 51.6164 24.6488 51.6164H32.565C35.9599 51.6164 38.7692 49.1091 39.241 45.8451C39.292 45.4916 39.59 45.2266 39.9471 45.2266H43.0503Z" fill="url(#paint18_linear_4077_32020)"/>
<path d="M13.4504 51.6167V55.4581C13.4504 55.7579 13.6935 56.001 13.9934 56.001H43.2204C43.5202 56.001 43.7633 55.7579 43.7633 55.4581V51.6167H13.4504Z" fill="url(#paint19_linear_4077_32020)"/>
<path d="M35.2246 6.3621C34.0592 6.36546 32.7148 6.37719 31.3262 6.40482C29.6767 6.43775 28.0395 6.00361 26.6651 5.09096C25.5615 4.35806 24.2237 3.95022 22.7871 4.00487C19.434 4.13232 16.6875 6.82459 16.4916 10.1744C16.4411 11.0377 16.5607 11.866 16.8154 12.6327C16.9059 13.0005 17.046 13.3614 17.2382 13.7048C17.2441 13.7153 17.2501 13.7259 17.2559 13.7365C17.4243 14.0404 17.6449 14.3594 17.9333 14.6791C19.0027 16.0047 20.5762 16.9064 22.3633 17.0901C23.9554 17.5119 25.9949 17.7786 28.6078 17.7786C36.2366 17.7786 38.9799 15.5049 39.9596 13.7365C39.9656 13.7259 39.9714 13.7154 39.9773 13.7048C40.123 13.4445 40.2391 13.1317 40.3261 12.7832C41.1442 9.50921 38.5992 6.35231 35.2246 6.3621Z" fill="url(#paint20_linear_4077_32020)"/>
<path d="M33.7 33.8675C33.7 35.9938 23.5146 35.9938 23.5146 33.8675C23.5146 31.7412 25.7947 30.0176 28.6073 30.0176C31.4199 30.0176 33.7 31.7412 33.7 33.8675Z" fill="url(#paint21_linear_4077_32020)"/>
<path d="M15.7774 48.5567C16.4907 48.5567 17.0689 47.9785 17.0689 47.2652C17.0689 46.5519 16.4907 45.9736 15.7774 45.9736C15.0641 45.9736 14.4858 46.5519 14.4858 47.2652C14.4858 47.9785 15.0641 48.5567 15.7774 48.5567Z" fill="url(#paint22_linear_4077_32020)"/>
<path d="M41.4375 48.5567C42.1508 48.5567 42.7291 47.9785 42.7291 47.2652C42.7291 46.5519 42.1508 45.9736 41.4375 45.9736C40.7242 45.9736 40.146 46.5519 40.146 47.2652C40.146 47.9785 40.7242 48.5567 41.4375 48.5567Z" fill="url(#paint23_linear_4077_32020)"/>
<path d="M27.2833 48.7101C27.7134 48.7101 28.0606 48.3549 28.0477 47.9218C28.0351 47.5033 27.67 47.1807 27.2512 47.1807H23.9695C23.5472 47.1807 23.2048 47.523 23.2048 47.9454V55.1016C23.2048 55.5203 23.5275 55.8854 23.9461 55.898C24.3791 55.9109 24.7342 55.5638 24.7342 55.1336V54.9806H27.2512C27.67 54.9806 28.0351 54.658 28.0477 54.2395C28.0607 53.8065 27.7135 53.4512 27.2833 53.4512H25.0146C24.8598 53.4512 24.7342 53.3257 24.7342 53.1708C24.7342 53.016 24.8598 52.8905 25.0146 52.8905H27.2512C27.67 52.8905 28.0351 52.5679 28.0477 52.1493C28.0607 51.7163 27.7135 51.361 27.2833 51.361H25.0146C24.8598 51.361 24.7342 51.2355 24.7342 51.0807C24.7342 50.9258 24.8598 50.8003 25.0146 50.8003H27.2512C27.67 50.8003 28.0351 50.4777 28.0477 50.0591C28.0607 49.6261 27.7135 49.2709 27.2833 49.2709H25.0146C24.8598 49.2709 24.7342 49.1453 24.7342 48.9905C24.7342 48.8356 24.8598 48.7101 25.0146 48.7101H27.2833Z" fill="url(#paint24_linear_4077_32020)"/>
<path d="M30.9842 49.1161C30.5783 48.9963 30.1537 49.2275 30.0339 49.6324L28.4706 54.9173C28.3508 55.3223 28.582 55.7478 28.9869 55.8675C29.0594 55.8889 29.1324 55.8991 29.2042 55.8991C29.5342 55.8991 29.8388 55.6837 29.9372 55.3511L31.5005 50.0661C31.6203 49.6613 31.3892 49.2358 30.9842 49.1161Z" fill="url(#paint25_linear_4077_32020)"/>
<path d="M33.9711 54.8879L32.9183 51.7976C32.7821 51.3978 32.3475 51.1842 31.9478 51.3203C31.548 51.4564 31.3344 51.891 31.4705 52.2908L32.5232 55.3811C32.6315 55.6992 32.9288 55.8994 33.247 55.8994C33.3289 55.8994 33.412 55.8862 33.4938 55.8583C33.8936 55.7222 34.1072 55.2876 33.9711 54.8879Z" fill="url(#paint26_linear_4077_32020)"/>
<path d="M35.4388 55.9997H21.7761V53.9732C21.7761 53.6847 22.01 53.4507 22.2987 53.4507H34.9164C35.2049 53.4507 35.4389 53.6846 35.4389 53.9732V55.9997H35.4388Z" fill="url(#paint27_linear_4077_32020)"/>
<path d="M35.4388 55.9997H21.7761V53.9732C21.7761 53.6847 22.01 53.4507 22.2987 53.4507H34.9164C35.2049 53.4507 35.4389 53.6846 35.4389 53.9732V55.9997H35.4388Z" fill="url(#paint28_linear_4077_32020)"/>
<defs>
<linearGradient id="paint0_linear_4077_32020" x1="23.2544" y1="41.5079" x2="30.0866" y2="55.386" gradientUnits="userSpaceOnUse">
<stop stop-color="#EAF6FF"/>
<stop offset="1" stop-color="#B3DAFE"/>
</linearGradient>
<linearGradient id="paint1_linear_4077_32020" x1="37.9356" y1="50.1849" x2="32.8008" y2="40.4121" gradientUnits="userSpaceOnUse">
<stop stop-color="#B3DAFE" stop-opacity="0"/>
<stop offset="1" stop-color="#7BACDF"/>
</linearGradient>
<linearGradient id="paint2_linear_4077_32020" x1="47.3177" y1="47.555" x2="43.8506" y2="47.555" gradientUnits="userSpaceOnUse">
<stop stop-color="#B3DAFE" stop-opacity="0"/>
<stop offset="1" stop-color="#7BACDF"/>
</linearGradient>
<linearGradient id="paint3_linear_4077_32020" x1="28.6076" y1="51.3134" x2="28.6076" y2="57.1578" gradientUnits="userSpaceOnUse">
<stop stop-color="#B3DAFE" stop-opacity="0"/>
<stop offset="1" stop-color="#7BACDF"/>
</linearGradient>
<linearGradient id="paint4_linear_4077_32020" x1="25.4749" y1="34.9015" x2="30.7481" y2="40.1747" gradientUnits="userSpaceOnUse">
<stop stop-color="#FFDFCF"/>
<stop offset="1" stop-color="#FFA78F"/>
</linearGradient>
<linearGradient id="paint5_linear_4077_32020" x1="28.6083" y1="46.2544" x2="28.6083" y2="39.9326" gradientUnits="userSpaceOnUse">
<stop stop-color="#F89580" stop-opacity="0"/>
<stop offset="0.9972" stop-color="#C5715A"/>
</linearGradient>
<linearGradient id="paint6_linear_4077_32020" x1="24.3103" y1="38.4485" x2="21.4044" y2="43.0367" gradientUnits="userSpaceOnUse">
<stop stop-color="#EAF6FF"/>
<stop offset="1" stop-color="#B3DAFE"/>
</linearGradient>
<linearGradient id="paint7_linear_4077_32020" x1="32.7864" y1="38.416" x2="36.1511" y2="42.5963" gradientUnits="userSpaceOnUse">
<stop stop-color="#EAF6FF"/>
<stop offset="1" stop-color="#B3DAFE"/>
</linearGradient>
<linearGradient id="paint8_linear_4077_32020" x1="14.6839" y1="21.8975" x2="18.0562" y2="25.2698" gradientUnits="userSpaceOnUse">
<stop stop-color="#FFDFCF"/>
<stop offset="1" stop-color="#FFA78F"/>
</linearGradient>
<linearGradient id="paint9_linear_4077_32020" x1="38.264" y1="21.257" x2="42.9828" y2="25.9759" gradientUnits="userSpaceOnUse">
<stop stop-color="#FFDFCF"/>
<stop offset="1" stop-color="#FFA78F"/>
</linearGradient>
<linearGradient id="paint10_linear_4077_32020" x1="20.4638" y1="18.4459" x2="36.6415" y2="29.3217" gradientUnits="userSpaceOnUse">
<stop stop-color="#FFDFCF"/>
<stop offset="1" stop-color="#FFA78F"/>
</linearGradient>
<linearGradient id="paint11_linear_4077_32020" x1="28.6059" y1="26.1389" x2="28.6059" y2="30.8971" gradientUnits="userSpaceOnUse">
<stop stop-color="#F89580" stop-opacity="0"/>
<stop offset="0.9972" stop-color="#C5715A"/>
</linearGradient>
<linearGradient id="paint12_linear_4077_32020" x1="22.0815" y1="23.2584" x2="24.5285" y2="25.0598" gradientUnits="userSpaceOnUse">
<stop stop-color="#5A5A5A"/>
<stop offset="1" stop-color="#444444"/>
</linearGradient>
<linearGradient id="paint13_linear_4077_32020" x1="32.7139" y1="23.153" x2="34.889" y2="24.7844" gradientUnits="userSpaceOnUse">
<stop stop-color="#5A5A5A"/>
<stop offset="1" stop-color="#444444"/>
</linearGradient>
<linearGradient id="paint14_linear_4077_32020" x1="35.6938" y1="18.0106" x2="41.5382" y2="18.0106" gradientUnits="userSpaceOnUse">
<stop stop-color="#3E5959"/>
<stop offset="1" stop-color="#384949"/>
</linearGradient>
<linearGradient id="paint15_linear_4077_32020" x1="15.6768" y1="18.0107" x2="21.5222" y2="18.0107" gradientUnits="userSpaceOnUse">
<stop stop-color="#3E5959"/>
<stop offset="1" stop-color="#384949"/>
</linearGradient>
<linearGradient id="paint16_linear_4077_32020" x1="39.6083" y1="40.7529" x2="42.3612" y2="43.6757" gradientUnits="userSpaceOnUse">
<stop stop-color="#3E5959"/>
<stop offset="1" stop-color="#384949"/>
</linearGradient>
<linearGradient id="paint17_linear_4077_32020" x1="13.8549" y1="40.0958" x2="16.8798" y2="43.1206" gradientUnits="userSpaceOnUse">
<stop stop-color="#3E5959"/>
<stop offset="1" stop-color="#384949"/>
</linearGradient>
<linearGradient id="paint18_linear_4077_32020" x1="28.6069" y1="45.8463" x2="28.6069" y2="56.5991" gradientUnits="userSpaceOnUse">
<stop stop-color="#3E5959"/>
<stop offset="1" stop-color="#384949"/>
</linearGradient>
<linearGradient id="paint19_linear_4077_32020" x1="28.6069" y1="53.1461" x2="28.6069" y2="55.6972" gradientUnits="userSpaceOnUse">
<stop stop-color="#384949" stop-opacity="0"/>
<stop offset="1"/>
</linearGradient>
<linearGradient id="paint20_linear_4077_32020" x1="26.9831" y1="8.43475" x2="30.0418" y2="14.2463" gradientUnits="userSpaceOnUse">
<stop stop-color="#3E5959"/>
<stop offset="1" stop-color="#384949"/>
</linearGradient>
<linearGradient id="paint21_linear_4077_32020" x1="27.9265" y1="32.2364" x2="29.5051" y2="35.3761" gradientUnits="userSpaceOnUse">
<stop stop-color="#3E5959"/>
<stop offset="1" stop-color="#384949"/>
</linearGradient>
<linearGradient id="paint22_linear_4077_32020" x1="15.1146" y1="46.6024" x2="16.1514" y2="47.6392" gradientUnits="userSpaceOnUse">
<stop stop-color="#FEE45A"/>
<stop offset="1" stop-color="#FEA613"/>
</linearGradient>
<linearGradient id="paint23_linear_4077_32020" x1="40.7748" y1="46.6024" x2="41.8115" y2="47.6392" gradientUnits="userSpaceOnUse">
<stop stop-color="#FEE45A"/>
<stop offset="1" stop-color="#FEA613"/>
</linearGradient>
<linearGradient id="paint24_linear_4077_32020" x1="22.4602" y1="48.3733" x2="28.3284" y2="54.2414" gradientUnits="userSpaceOnUse">
<stop stop-color="#FEAEE1"/>
<stop offset="1" stop-color="#FE5694"/>
</linearGradient>
<linearGradient id="paint25_linear_4077_32020" x1="28.5142" y1="51.0205" x2="31.4568" y2="53.9631" gradientUnits="userSpaceOnUse">
<stop stop-color="#8AC9FE"/>
<stop offset="1" stop-color="#0593FC"/>
</linearGradient>
<linearGradient id="paint26_linear_4077_32020" x1="31.1441" y1="52.0126" x2="34.2974" y2="55.166" gradientUnits="userSpaceOnUse">
<stop stop-color="#97DA7B"/>
<stop offset="1" stop-color="#006E66"/>
</linearGradient>
<linearGradient id="paint27_linear_4077_32020" x1="28.6075" y1="53.935" x2="28.6075" y2="55.3645" gradientUnits="userSpaceOnUse">
<stop stop-color="#3E5959"/>
<stop offset="1" stop-color="#384949"/>
</linearGradient>
<linearGradient id="paint28_linear_4077_32020" x1="28.6075" y1="54.2664" x2="28.6075" y2="56.4198" gradientUnits="userSpaceOnUse">
<stop stop-color="#384949" stop-opacity="0"/>
<stop offset="1"/>
</linearGradient>
</defs>
</svg>
