<svg width="89" height="89" viewBox="0 0 89 89" fill="none" xmlns="http://www.w3.org/2000/svg">
<path d="M67.2125 51.1619V12.1644C67.2125 8.89368 64.5593 6.24048 61.2885 6.24048H13.4852H7.90434C4.63359 6.24048 1.95752 8.89368 1.95752 12.1644V74.4002C1.95752 77.671 4.61072 80.3242 7.90434 80.3242H13.4852H54.8156" stroke="#FC944D" stroke-width="2.48198" stroke-miterlimit="10"/>
<path d="M15.3379 1.25391V10.9061" stroke="#FC944D" stroke-width="2.48198" stroke-miterlimit="10" stroke-linecap="round"/>
<path d="M15.2004 17.5619C16.9941 17.5619 18.4483 16.1078 18.4483 14.314C18.4483 12.5203 16.9941 11.0662 15.2004 11.0662C13.4066 11.0662 11.9525 12.5203 11.9525 14.314C11.9525 16.1078 13.4066 17.5619 15.2004 17.5619Z" stroke="#FC944D" stroke-width="2.48198" stroke-miterlimit="10" stroke-linecap="round"/>
<path d="M27.9641 1.25391V10.9061" stroke="#FC944D" stroke-width="2.48198" stroke-miterlimit="10" stroke-linecap="round"/>
<path d="M27.8265 17.5619C29.6203 17.5619 31.0744 16.1078 31.0744 14.314C31.0744 12.5203 29.6203 11.0662 27.8265 11.0662C26.0327 11.0662 24.5786 12.5203 24.5786 14.314C24.5786 16.1078 26.0327 17.5619 27.8265 17.5619Z" stroke="#FC944D" stroke-width="2.48198" stroke-miterlimit="10" stroke-linecap="round"/>
<path d="M40.1545 1.25391V10.9061" stroke="#FC944D" stroke-width="2.48198" stroke-miterlimit="10" stroke-linecap="round"/>
<path d="M40.017 17.5619C41.8108 17.5619 43.2649 16.1078 43.2649 14.314C43.2649 12.5203 41.8108 11.0662 40.017 11.0662C38.2233 11.0662 36.7692 12.5203 36.7692 14.314C36.7692 16.1078 38.2233 17.5619 40.017 17.5619Z" stroke="#FC944D" stroke-width="2.48198" stroke-miterlimit="10" stroke-linecap="round"/>
<path d="M52.3676 1.25391V10.9061" stroke="#FC944D" stroke-width="2.48198" stroke-miterlimit="10" stroke-linecap="round"/>
<path d="M52.2301 17.5619C54.0238 17.5619 55.4779 16.1078 55.4779 14.314C55.4779 12.5203 54.0238 11.0662 52.2301 11.0662C50.4363 11.0662 48.9822 12.5203 48.9822 14.314C48.9822 16.1078 50.4363 17.5619 52.2301 17.5619Z" stroke="#FC944D" stroke-width="2.48198" stroke-miterlimit="10" stroke-linecap="round"/>
<path d="M11.9529 31.3325H49.6924" stroke="#FC944D" stroke-width="2.48198" stroke-miterlimit="10" stroke-linecap="round" stroke-linejoin="round"/>
<path d="M11.9529 35.4495H35.7402" stroke="#FC944D" stroke-width="2.48198" stroke-miterlimit="10" stroke-linecap="round" stroke-linejoin="round"/>
<path d="M11.9529 51.1624H49.6923" stroke="#FC944D" stroke-width="2.48198" stroke-miterlimit="10" stroke-linecap="round" stroke-linejoin="round"/>
<path d="M11.9529 55.2794H35.7402" stroke="#FC944D" stroke-width="2.48198" stroke-miterlimit="10" stroke-linecap="round" stroke-linejoin="round"/>
<path d="M11.9529 70.993H46.5588" stroke="#FC944D" stroke-width="2.48198" stroke-miterlimit="10" stroke-linecap="round" stroke-linejoin="round"/>
<path d="M11.9529 75.1099H31.1657" stroke="#FC944D" stroke-width="2.48198" stroke-miterlimit="10" stroke-linecap="round" stroke-linejoin="round"/>
<path d="M52.8176 77.1647C55.7583 83.1412 61.9086 87.2538 69.0194 87.2538C78.9861 87.2538 87.0657 79.1742 87.0657 69.2075C87.0657 59.2408 78.9861 51.1612 69.0194 51.1612C63.4115 51.1612 58.4011 53.7191 55.0911 57.7318C53.9431 59.1236 52.9996 60.6905 52.3067 62.3864" stroke="black" stroke-width="2.48198" stroke-miterlimit="10" stroke-linecap="round" stroke-linejoin="round"/>
<path d="M49.4426 59.5748L51.6875 64.1835L56.3243 61.8537" stroke="black" stroke-width="2.48" stroke-linecap="round" stroke-linejoin="round"/>
<path d="M68.2989 61.2689V70.8108L75.5861 75.7759" stroke="black" stroke-width="2.48" stroke-linecap="round" stroke-linejoin="round"/>
</svg>
