<svg width="81" height="96" viewBox="0 0 81 96" fill="none" xmlns="http://www.w3.org/2000/svg">
<path d="M55.3127 17.4794C50.9941 13.7565 45.5337 11.3241 39.5273 10.7781" stroke="#6759FF" stroke-width="3" stroke-miterlimit="10" stroke-linecap="round" stroke-linejoin="round"/>
<path d="M14.8567 68.8813C10.9351 68.8813 7.75819 72.0583 7.75819 75.9798V82.4826H2V75.9798C2 72.4058 4.65572 69.4274 8.08085 68.9558C8.40351 68.9062 8.75098 68.8813 9.09846 68.8813H14.8567Z" fill="#E5E2FF" fill-opacity="0.5"/>
<path d="M39.5275 10.8028C25.132 12.1183 13.8638 24.2055 13.8638 38.9485V68.9059H9.09842C8.75094 68.9059 8.40347 68.9308 8.08081 68.9804V38.9485C8.08081 23.3368 20.7389 10.7035 36.3257 10.7035H36.8966C37.7901 10.6787 38.6588 10.7035 39.5275 10.8028Z" fill="#E5E2FF" fill-opacity="0.5"/>
<path d="M7.75819 82.507H2V76.0042C2 72.4302 4.65572 69.4518 8.08085 68.9802C8.40351 68.9306 8.75098 68.9058 9.09846 68.9058H14.8567" stroke="#6759FF" stroke-width="2.48198" stroke-miterlimit="10" stroke-linecap="round" stroke-linejoin="round"/>
<path d="M70.9497 43.8809V68.8816" stroke="#6759FF" stroke-width="3" stroke-miterlimit="10" stroke-linecap="round" stroke-linejoin="round"/>
<path d="M13.8638 68.8809H9.09842C8.75094 68.8809 8.40347 68.9057 8.08081 68.9553V38.9234C8.08081 23.3117 20.7389 10.6785 36.3257 10.6785H36.8966C37.7653 10.6785 38.634 10.7281 39.5027 10.8026" stroke="#6759FF" stroke-width="3" stroke-miterlimit="10" stroke-linecap="round" stroke-linejoin="round"/>
<path d="M14.8566 68.8813H69.9069C73.8285 68.8813 77.0054 72.0583 77.0054 75.9798V82.4826H7.75818" stroke="#6759FF" stroke-width="3" stroke-miterlimit="10" stroke-linecap="round" stroke-linejoin="round"/>
<path d="M33.5707 10.6786V5.34235C33.5707 3.67942 34.9358 2.31433 36.5987 2.31433H36.6483C38.3113 2.31433 39.6763 3.67942 39.6763 5.34235V10.6786" stroke="#6759FF" stroke-width="3" stroke-miterlimit="10" stroke-linecap="round" stroke-linejoin="round"/>
<path d="M46.0309 84.5669C46.0309 89.7542 41.8116 93.9736 36.6242 93.9736C31.4369 93.9736 27.2175 89.7542 27.2175 84.5669C27.2175 83.8471 27.292 83.177 27.4409 82.5068H45.8076C45.9565 83.1522 46.0309 83.8471 46.0309 84.5669Z" stroke="#6759FF" stroke-width="3" stroke-miterlimit="10" stroke-linecap="round" stroke-linejoin="round"/>
<path d="M14.7822 43.0928V58.8533" stroke="#6759FF" stroke-width="3" stroke-miterlimit="10" stroke-linecap="round" stroke-linejoin="round"/>
<path d="M14.7822 36.094V37.7817" stroke="#6759FF" stroke-width="3" stroke-miterlimit="10" stroke-linecap="round" stroke-linejoin="round"/>
<path d="M57.8698 30.4597C57.8946 28.623 58.0683 27.0097 58.7384 25.4709C59.3589 24.0562 60.2773 22.8896 61.7665 22.3188C64.1492 21.4004 67.0283 21.9713 68.5671 24.7511C69.2124 25.9176 69.5351 27.1835 69.684 28.4989C69.8329 29.6903 69.8329 30.8816 69.684 32.0481C69.4854 33.6614 69.0635 35.2002 68.0459 36.5157C66.8793 38.0297 65.3157 38.675 63.4294 38.5509C61.2204 38.402 59.7809 37.161 58.8625 35.2499C58.3165 34.1578 58.0683 32.9913 57.969 31.7751C57.9194 31.3035 57.8946 30.7823 57.8698 30.4597ZM60.2773 30.2611C60.3021 31.4028 60.3766 32.5693 60.724 33.6614C60.9722 34.4557 61.3693 35.2002 62.0147 35.7463C63.1315 36.6894 65.2164 36.6646 66.2837 35.0513C66.9786 34.0089 67.2516 32.8175 67.3509 31.6014C67.4502 30.4597 67.4502 29.318 67.2516 28.1762C67.1027 27.1835 66.8297 26.2403 66.234 25.4212C65.3405 24.1554 63.6776 23.7583 62.3621 24.5277C61.5679 24.9993 61.0963 25.7439 60.7985 26.5878C60.3765 27.7791 60.2773 29.0201 60.2773 30.2611Z" fill="#1AE5BE"/>
<path d="M50.399 36.9376C49.3069 34.8527 48.6864 32.47 48.6864 29.9384C48.6864 21.6486 55.4126 14.9473 63.6776 14.9473C71.9425 14.9473 78.6687 21.6734 78.6687 29.9384C78.6687 38.2034 71.9425 44.9296 63.6776 44.9296C60.7985 44.9296 58.1179 44.1105 55.8097 42.7206" stroke="#1AE5BE" stroke-width="3" stroke-miterlimit="10" stroke-linecap="round" stroke-linejoin="round"/>
</svg>
