<svg width="91" height="91" viewBox="0 0 91 91" fill="none" xmlns="http://www.w3.org/2000/svg">
<path d="M68.2125 52.0349V13.0375C68.2125 9.76672 65.5593 7.11353 62.2885 7.11353H14.4852H8.90434C5.63359 7.11353 2.95752 9.76672 2.95752 13.0375V75.2733C2.95752 78.544 5.61072 81.1972 8.90434 81.1972H14.4852H55.8156" stroke="#6759FF" stroke-width="2.48198" stroke-miterlimit="10"/>
<path d="M16.3379 2.12695V11.7791" stroke="#6759FF" stroke-width="2.48198" stroke-miterlimit="10" stroke-linecap="round"/>
<path d="M16.2004 18.435C17.9941 18.435 19.4483 16.9808 19.4483 15.1871C19.4483 13.3933 17.9941 11.9392 16.2004 11.9392C14.4066 11.9392 12.9525 13.3933 12.9525 15.1871C12.9525 16.9808 14.4066 18.435 16.2004 18.435Z" stroke="#6759FF" stroke-width="2.48198" stroke-miterlimit="10" stroke-linecap="round"/>
<path d="M28.9641 2.12695V11.7791" stroke="#6759FF" stroke-width="2.48198" stroke-miterlimit="10" stroke-linecap="round"/>
<path d="M28.8265 18.435C30.6203 18.435 32.0744 16.9808 32.0744 15.1871C32.0744 13.3933 30.6203 11.9392 28.8265 11.9392C27.0327 11.9392 25.5786 13.3933 25.5786 15.1871C25.5786 16.9808 27.0327 18.435 28.8265 18.435Z" stroke="#6759FF" stroke-width="2.48198" stroke-miterlimit="10" stroke-linecap="round"/>
<path d="M41.1545 2.12695V11.7791" stroke="#6759FF" stroke-width="2.48198" stroke-miterlimit="10" stroke-linecap="round"/>
<path d="M41.017 18.435C42.8108 18.435 44.2649 16.9808 44.2649 15.1871C44.2649 13.3933 42.8108 11.9392 41.017 11.9392C39.2233 11.9392 37.7692 13.3933 37.7692 15.1871C37.7692 16.9808 39.2233 18.435 41.017 18.435Z" stroke="#6759FF" stroke-width="2.48198" stroke-miterlimit="10" stroke-linecap="round"/>
<path d="M53.3676 2.12695V11.7791" stroke="#6759FF" stroke-width="2.48198" stroke-miterlimit="10" stroke-linecap="round"/>
<path d="M53.2301 18.435C55.0238 18.435 56.4779 16.9808 56.4779 15.1871C56.4779 13.3933 55.0238 11.9392 53.2301 11.9392C51.4363 11.9392 49.9822 13.3933 49.9822 15.1871C49.9822 16.9808 51.4363 18.435 53.2301 18.435Z" stroke="#6759FF" stroke-width="2.48198" stroke-miterlimit="10" stroke-linecap="round"/>
<path d="M12.9529 32.2056H50.6924" stroke="#6759FF" stroke-width="2.48198" stroke-miterlimit="10" stroke-linecap="round" stroke-linejoin="round"/>
<path d="M12.9529 36.3225H36.7402" stroke="#6759FF" stroke-width="2.48198" stroke-miterlimit="10" stroke-linecap="round" stroke-linejoin="round"/>
<path d="M12.9529 52.0354H50.6923" stroke="#6759FF" stroke-width="2.48198" stroke-miterlimit="10" stroke-linecap="round" stroke-linejoin="round"/>
<path d="M12.9529 56.1523H36.7402" stroke="#6759FF" stroke-width="2.48198" stroke-miterlimit="10" stroke-linecap="round" stroke-linejoin="round"/>
<path d="M12.9529 71.8661H47.5588" stroke="#6759FF" stroke-width="2.48198" stroke-miterlimit="10" stroke-linecap="round" stroke-linejoin="round"/>
<path d="M12.9529 75.983H32.1657" stroke="#6759FF" stroke-width="2.48198" stroke-miterlimit="10" stroke-linecap="round" stroke-linejoin="round"/>
<path d="M70.0193 88.127C79.986 88.127 88.0657 80.0473 88.0657 70.0806C88.0657 60.1139 79.986 52.0343 70.0193 52.0343C60.0526 52.0343 51.973 60.1139 51.973 70.0806C51.973 80.0473 60.0526 88.127 70.0193 88.127Z" stroke="#1AE5BE" stroke-width="2.48198" stroke-miterlimit="10" stroke-linecap="round" stroke-linejoin="round"/>
<path d="M65.0563 75.0901L74.983 65.1635" stroke="#1AE5BE" stroke-width="2.48198" stroke-miterlimit="10" stroke-linecap="round" stroke-linejoin="round"/>
<path d="M65.0563 65.1635L74.983 75.0901" stroke="#1AE5BE" stroke-width="2.48198" stroke-miterlimit="10" stroke-linecap="round" stroke-linejoin="round"/>
</svg>
