<svg width="24" height="24" viewBox="0 0 24 24" fill="none" xmlns="http://www.w3.org/2000/svg">
<path d="M20.3962 3.60103L20.3965 3.60133C20.5313 3.73603 20.5313 3.95411 20.3965 4.08881L20.3965 4.08889L4.08892 20.3964L4.08862 20.3967C4.02139 20.4641 3.93405 20.4977 3.84511 20.4977C3.7562 20.4977 3.66876 20.4641 3.6013 20.3966L3.60107 20.3964C3.46631 20.2617 3.46631 20.0436 3.60107 19.9089L3.60115 19.9088L19.9087 3.60125L19.9089 3.60103C20.0434 3.46632 20.2617 3.46632 20.3962 3.60103Z" fill="black" stroke="black"/>
<path d="M3.5 7.02273C3.5 5.08575 5.07686 3.50879 7.0138 3.50879C8.95076 3.50879 10.5276 5.08563 10.5276 7.02259C10.5276 8.95959 8.95087 10.5365 7.0138 10.5365C5.07684 10.5365 3.5 8.95969 3.5 7.02273ZM4.19 7.02259C4.19 8.57996 5.45625 9.84639 7.0138 9.84639C8.57135 9.84639 9.8376 8.57996 9.8376 7.02259C9.8376 5.46522 8.57135 4.19879 7.0138 4.19879C5.45641 4.19879 4.19 5.4652 4.19 7.02259Z" fill="black" stroke="black"/>
<path d="M16.9902 12.9722C14.7771 12.9722 12.9764 14.7729 12.9764 16.986C12.9764 19.1991 14.7771 20.9998 16.9902 20.9998C19.2033 20.9998 21.004 19.1992 21.004 16.986C21.004 14.7727 19.2033 12.9722 16.9902 12.9722ZM16.9902 19.3096C15.7089 19.3096 14.6664 18.2671 14.6664 16.9858C14.6664 15.7046 15.709 14.662 16.9902 14.662C18.2715 14.662 19.314 15.7046 19.314 16.9858C19.314 18.2671 18.2716 19.3096 16.9902 19.3096Z" fill="black"/>
</svg>
