<svg width="46" height="46" viewBox="0 0 46 46" fill="none" xmlns="http://www.w3.org/2000/svg">
<path fill-rule="evenodd" clip-rule="evenodd" d="M19.8148 5.85765C21.9172 4.06601 25.0094 4.06601 27.1118 5.85765L27.2436 5.97001C28.1445 6.73777 29.2647 7.20175 30.4446 7.29591L30.6173 7.30969C33.3708 7.52942 35.5573 9.71592 35.777 12.4694L35.7908 12.6421C35.885 13.822 36.349 14.9422 37.1167 15.8431L37.2291 15.975C39.0207 18.0773 39.0207 21.1695 37.2291 23.2719L37.1167 23.4038C36.349 24.3047 35.885 25.4248 35.7908 26.6048L35.777 26.7775C35.6211 28.7314 34.4747 30.3999 32.8382 31.2826V40.5409C32.8382 41.7969 31.6274 42.6977 30.4244 42.3368L23.4632 40.2484L16.5019 42.3368C15.2989 42.6977 14.0882 41.7969 14.0882 40.5409V31.2824C12.4517 30.3997 11.3055 28.7313 11.1495 26.7775L11.1358 26.6048C11.0416 25.4248 10.5776 24.3047 9.80985 23.4038L9.69749 23.2719C7.90585 21.1695 7.90585 18.0774 9.69749 15.975L9.80985 15.8431C10.5776 14.9422 11.0416 13.822 11.1358 12.6421L11.1495 12.4694C11.3693 9.71592 13.5558 7.52942 16.3093 7.30969L16.4819 7.29591C17.6619 7.20175 18.782 6.73777 19.683 5.97001L19.8148 5.85765ZM24.6794 8.71183L24.8113 8.82419C26.3128 10.1038 28.1798 10.8771 30.1463 11.034L30.319 11.0478C31.2368 11.1211 31.9657 11.8499 32.0389 12.7677L32.0527 12.9404C32.2096 14.907 32.9829 16.7739 34.2625 18.2754L34.3749 18.4073C34.9721 19.1081 34.9721 20.1388 34.3749 20.8396L34.2625 20.9714C32.9829 22.473 32.2096 24.3399 32.0527 26.3065L32.0389 26.4792C31.9657 27.397 31.2368 28.1258 30.319 28.1991L30.1463 28.2128C28.1798 28.3698 26.3128 29.1431 24.8113 30.4227L24.6794 30.535C23.9786 31.1323 22.9479 31.1323 22.2471 30.5351L22.1153 30.4227C20.6137 29.1431 18.7468 28.3698 16.7802 28.2128L16.6076 28.1991C15.6897 28.1258 14.9609 27.397 14.8877 26.4792L14.8739 26.3065C14.7169 24.3399 13.9436 22.473 12.664 20.9714L12.5517 20.8396C11.9545 20.1388 11.9545 19.1081 12.5517 18.4073L12.664 18.2754C13.9436 16.7739 14.7169 14.907 14.8739 12.9404L14.8877 12.7677C14.9609 11.8499 15.6897 11.1211 16.6076 11.0478L16.7802 11.034C18.7468 10.8771 20.6137 10.1038 22.1153 8.82419L22.2471 8.71183C22.9479 8.11461 23.9786 8.11461 24.6794 8.71183Z" fill="white"/>
<path d="M22.1231 13.5983C22.5648 12.3276 24.3619 12.3276 24.8036 13.5983L25.4745 15.5282C25.6693 16.0888 26.1925 16.4689 26.7859 16.481L28.8286 16.5226C30.1737 16.55 30.729 18.2592 29.6569 19.072L28.0288 20.3064C27.5559 20.6649 27.356 21.2799 27.5279 21.848L28.1195 23.8036C28.5091 25.0913 27.0552 26.1476 25.9509 25.3792L24.2738 24.2122C23.7867 23.8732 23.14 23.8732 22.6529 24.2122L20.9758 25.3792C19.8715 26.1476 18.4176 25.0913 18.8072 23.8036L19.3988 21.848C19.5707 21.2799 19.3709 20.6649 18.8979 20.3064L17.2698 19.072C16.1977 18.2592 16.7531 16.55 18.0981 16.5226L20.1409 16.481C20.7342 16.4689 21.2574 16.0888 21.4522 15.5282L22.1231 13.5983Z" fill="white"/>
</svg>
