<svg width="24" height="24" viewBox="0 0 24 24" fill="none" xmlns="http://www.w3.org/2000/svg">
<path d="M20.3333 9.09984V5.3165C20.3333 4.1415 19.8 3.6665 18.475 3.6665H15.1083C13.7833 3.6665 13.25 4.1415 13.25 5.3165V9.0915C13.25 10.2748 13.7833 10.7415 15.1083 10.7415H18.475C19.8 10.7498 20.3333 10.2748 20.3333 9.09984Z" fill="#084B98"/>
<path d="M20.3333 18.475V15.1083C20.3333 13.7833 19.8 13.25 18.475 13.25H15.1083C13.7833 13.25 13.25 13.7833 13.25 15.1083V18.475C13.25 19.8 13.7833 20.3333 15.1083 20.3333H18.475C19.8 20.3333 20.3333 19.8 20.3333 18.475Z" fill="#084B98"/>
<path d="M10.7501 9.09984V5.3165C10.7501 4.1415 10.2167 3.6665 8.89175 3.6665H5.52508C4.20008 3.6665 3.66675 4.1415 3.66675 5.3165V9.0915C3.66675 10.2748 4.20008 10.7415 5.52508 10.7415H8.89175C10.2167 10.7498 10.7501 10.2748 10.7501 9.09984Z" fill="#084B98"/>
<path d="M10.7501 18.475V15.1083C10.7501 13.7833 10.2167 13.25 8.89175 13.25H5.52508C4.20008 13.25 3.66675 13.7833 3.66675 15.1083V18.475C3.66675 19.8 4.20008 20.3333 5.52508 20.3333H8.89175C10.2167 20.3333 10.7501 19.8 10.7501 18.475Z" fill="#084B98"/>
</svg>