<svg width="20" height="21" viewBox="0 0 20 21" fill="none" xmlns="http://www.w3.org/2000/svg">
<path fill-rule="evenodd" clip-rule="evenodd" d="M1.82741 6.35512C1.13494 4.27769 3.25852 2.377 5.24677 3.29466L16.7486 8.60323C18.6851 9.49699 18.6851 12.2493 16.7486 13.143L5.24677 18.4516C3.25852 19.3692 1.13494 17.4685 1.82742 15.3911L3.06988 11.6637C3.24094 11.1505 3.24094 10.5957 3.06989 10.0826L1.82741 6.35512ZM4.54833 4.80792L16.0502 10.1165C16.6957 10.4144 16.6957 11.3318 16.0502 11.6298L4.54834 16.9383C3.88559 17.2442 3.17773 16.6106 3.40856 15.9181L4.65102 12.1907C4.70413 12.0314 4.74735 11.8697 4.78067 11.7064H11.6667C12.127 11.7064 12.5001 11.3333 12.5001 10.8731C12.5001 10.4129 12.127 10.0398 11.6667 10.0398H4.78066C4.74734 9.87654 4.70413 9.71482 4.65103 9.55552L3.40855 5.82808C3.17772 5.1356 3.88559 4.50204 4.54833 4.80792Z" fill="white"/>
</svg>
