<svg width="60" height="60" viewBox="0 0 60 60" fill="none" xmlns="http://www.w3.org/2000/svg">
<path d="M37.7543 21.3823H32.7015C31.9493 21.3823 31.3396 21.992 31.3396 22.7442V46.1457C31.3396 46.4247 31.5659 46.651 31.8449 46.651H52.5794C53.3316 46.651 53.9414 46.0413 53.9414 45.2891V37.5694C53.9414 34.4577 52.7053 31.4734 50.5049 29.2731L46.0505 24.8187C43.8503 22.6185 40.866 21.3823 37.7543 21.3823Z" fill="url(#paint0_linear_4077_32137)"/>
<path d="M53.9397 37.5687C53.9397 36.2457 53.7154 34.9459 53.2894 33.7194L51.55 31.98C51.1566 31.5391 50.5843 31.2612 49.9469 31.2612H49.6157C49.1714 31.2612 48.8113 31.6214 48.8113 32.0656V35.6915C48.8113 35.958 48.9414 36.1935 49.1411 36.3399L53.9398 41.1385V37.5687H53.9397Z" fill="url(#paint1_linear_4077_32137)"/>
<path d="M31.3394 46.146C31.3394 46.4251 31.5656 46.6513 31.8447 46.6513H52.5792C53.3314 46.6513 53.9411 46.0416 53.9411 45.2894V37.5697C53.9411 37.3284 53.9328 37.0881 53.9181 36.8486H31.3394V46.146Z" fill="url(#paint2_linear_4077_32137)"/>
<path d="M38.7382 23.0327H34.8302C34.2485 23.0327 33.7769 23.5139 33.7769 24.1074V34.4456C33.7769 35.1973 34.374 35.8066 35.1108 35.8066H49.8073C50.6415 35.8066 51.2644 35.0355 51.1195 34.1973C50.7982 32.3394 49.9251 30.6119 48.5997 29.2596L45.1546 25.7445C43.4529 24.0082 41.1448 23.0327 38.7382 23.0327Z" fill="url(#paint3_linear_4077_32137)"/>
<path d="M39.0597 24.7534H35.9634C35.5026 24.7534 35.1289 25.1271 35.1289 25.588V33.6155C35.1289 34.1992 35.602 34.6725 36.1858 34.6725H47.8296C48.4905 34.6725 48.9841 34.0737 48.8692 33.4228C48.6145 31.9801 47.9229 30.6387 46.8729 29.5887L44.1434 26.8592C42.7951 25.5109 40.9664 24.7534 39.0597 24.7534Z" fill="url(#paint4_linear_4077_32137)"/>
<path d="M49.52 36.3976H49.8512C51.0377 36.3976 51.9994 35.4359 51.9994 34.2494V33.3113C51.9994 32.1248 51.0377 31.1631 49.8512 31.1631H49.52C49.0757 31.1631 48.7156 31.5232 48.7156 31.9675V35.5933C48.7156 36.0375 49.0757 36.3976 49.52 36.3976Z" fill="url(#paint5_linear_4077_32137)"/>
<path d="M37.9027 37.519H35.7394C35.4022 37.519 35.1289 37.7924 35.1289 38.1296C35.1289 38.4668 35.4023 38.7401 35.7394 38.7401H37.9027C38.2399 38.7401 38.5132 38.4667 38.5132 38.1296C38.5132 37.7924 38.2398 37.519 37.9027 37.519Z" fill="url(#paint6_linear_4077_32137)"/>
<path d="M54.3486 43.359H50.6931V40.925C50.6931 39.4349 51.901 38.2271 53.3911 38.2271C53.9199 38.2271 54.3486 38.6557 54.3486 39.1846V43.359Z" fill="url(#paint7_linear_4077_32137)"/>
<path d="M29.6657 21.1604H13.1925C12.8225 21.1604 12.5225 20.8604 12.5225 20.4904V6.77014C12.5225 6.40011 12.8225 6.1001 13.1925 6.1001H29.6657C30.0357 6.1001 30.3357 6.40011 30.3357 6.77014V20.4904C30.3357 20.8605 30.0357 21.1604 29.6657 21.1604Z" fill="url(#paint8_linear_4077_32137)"/>
<path d="M30.3348 6.77004V20.4904C30.3348 20.8603 30.0348 21.1603 29.6649 21.1603H27.4784L16.6868 10.3687V6.1001H29.6649C30.0348 6.1001 30.3348 6.40011 30.3348 6.77004Z" fill="url(#paint9_linear_4077_32137)"/>
<path d="M29.6679 6.1001H24.9875C25.3576 6.1001 25.6576 6.40011 25.6576 6.77014V20.4904C25.6576 20.8604 25.3576 21.1604 24.9875 21.1604H29.6679C30.0379 21.1604 30.3379 20.8604 30.3379 20.4904V6.77014C30.3379 6.40011 30.0379 6.1001 29.6679 6.1001Z" fill="url(#paint10_linear_4077_32137)"/>
<path d="M12.5225 17.5269V20.4893C12.5225 20.8593 12.8225 21.1594 13.1925 21.1594H29.6657C30.0357 21.1594 30.3357 20.8593 30.3357 20.4893V17.5269H12.5225Z" fill="url(#paint11_linear_4077_32137)"/>
<path d="M17.3762 10.4828L17.3893 10.4908C17.6905 10.6737 18.0692 10.6706 18.3673 10.4829C18.672 10.2989 19.0536 10.2989 19.3583 10.4829C19.663 10.6669 20.0446 10.6669 20.3493 10.4829C20.4905 10.4011 20.6468 10.3994 20.8042 10.4289C20.9836 10.4625 21.1504 10.328 21.1504 10.1453V6.23568C21.1504 6.10546 21.0448 6 20.9147 6H16.8106C16.6804 6 16.575 6.10555 16.575 6.23568V10.1397C16.575 10.3212 16.74 10.4572 16.9184 10.4237C17.0775 10.3939 17.2352 10.3971 17.3762 10.4828Z" fill="url(#paint12_linear_4077_32137)"/>
<path d="M29.414 41.8343H6.79922C6.29123 41.8343 5.87939 41.4225 5.87939 40.9145V22.079C5.87939 21.571 6.29123 21.1592 6.79922 21.1592H29.414C29.922 21.1592 30.3338 21.571 30.3338 22.079V40.9145C30.3338 41.4225 29.922 41.8343 29.414 41.8343Z" fill="url(#paint13_linear_4077_32137)"/>
<path d="M30.3319 22.0789V40.9146C30.3319 41.4224 29.9199 41.8343 29.4122 41.8343H26.4106L11.5955 27.0192V21.1592H29.4122C29.9199 21.1592 30.3319 21.5711 30.3319 22.0789Z" fill="url(#paint14_linear_4077_32137)"/>
<path d="M29.4121 21.1592H22.9868C23.4948 21.1592 23.9066 21.571 23.9066 22.079V40.9146C23.9066 41.4226 23.4948 41.8344 22.9868 41.8344H29.4121C29.9201 41.8344 30.3319 41.4226 30.3319 40.9146V22.0791C30.3319 21.571 29.9201 21.1592 29.4121 21.1592Z" fill="url(#paint15_linear_4077_32137)"/>
<path d="M5.87915 36.8486V40.9156C5.87915 41.4236 6.29099 41.8354 6.79898 41.8354H29.4138C29.9217 41.8354 30.3336 41.4236 30.3336 40.9156V36.8486H5.87915Z" fill="url(#paint16_linear_4077_32137)"/>
<path d="M12.5426 27.1766L12.5606 27.1876C12.9741 27.4386 13.494 27.4344 13.9033 27.1766C14.3216 26.924 14.8454 26.924 15.2638 27.1766C15.6821 27.4292 16.206 27.4292 16.6244 27.1766H16.6245C16.8183 27.0644 17.0329 27.0619 17.2489 27.1025C17.4953 27.1487 17.7242 26.9639 17.7242 26.7133V21.3461C17.7242 21.1674 17.5792 21.0225 17.4005 21.0225H11.7662C11.5875 21.0225 11.4426 21.1674 11.4426 21.3461V26.7056C11.4426 26.9548 11.6693 27.1415 11.9142 27.0955C12.1324 27.0546 12.3489 27.059 12.5426 27.1766Z" fill="url(#paint17_linear_4077_32137)"/>
<path d="M31.9018 46.6509H6.87843C5.841 46.6509 5 45.8099 5 44.7725V43.7134C5 42.676 5.841 41.835 6.87843 41.835H31.9018C32.4384 41.835 32.8736 42.2701 32.8736 42.8068V45.679C32.8736 46.2157 32.4384 46.6509 31.9018 46.6509Z" fill="url(#paint18_linear_4077_32137)"/>
<path d="M20.7737 42.938V46.6501H24.4858L20.7737 42.938Z" fill="url(#paint19_linear_4077_32137)"/>
<path d="M46.0271 46.6504H53.0591C54.0965 46.6504 54.9375 45.8094 54.9375 44.772V43.7129C54.9375 42.6755 54.0965 41.8345 53.0591 41.8345H46.0271V46.6504Z" fill="url(#paint20_linear_4077_32137)"/>
<path d="M49.2849 42.938V46.6501H52.997L49.2849 42.938Z" fill="url(#paint21_linear_4077_32137)"/>
<path d="M15.6842 52.9895C19.1721 52.9895 21.9995 50.1621 21.9995 46.6742C21.9995 43.1864 19.1721 40.3589 15.6842 40.3589C12.1964 40.3589 9.3689 43.1864 9.3689 46.6742C9.3689 50.1621 12.1964 52.9895 15.6842 52.9895Z" fill="url(#paint22_linear_4077_32137)"/>
<path d="M15.6839 51.3005C18.2396 51.3005 20.3115 49.2287 20.3115 46.6729C20.3115 44.1172 18.2396 42.0454 15.6839 42.0454C13.1282 42.0454 11.0564 44.1172 11.0564 46.6729C11.0564 49.2287 13.1282 51.3005 15.6839 51.3005Z" fill="url(#paint23_linear_4077_32137)"/>
<path d="M15.684 49.5536C17.2745 49.5536 18.5638 48.2642 18.5638 46.6738C18.5638 45.0833 17.2745 43.7939 15.684 43.7939C14.0935 43.7939 12.8042 45.0833 12.8042 46.6738C12.8042 48.2642 14.0935 49.5536 15.684 49.5536Z" fill="url(#paint24_linear_4077_32137)"/>
<path d="M44.2545 52.99C47.7424 52.99 50.5698 50.1625 50.5698 46.6747C50.5698 43.1868 47.7424 40.3594 44.2545 40.3594C40.7667 40.3594 37.9392 43.1868 37.9392 46.6747C37.9392 50.1625 40.7667 52.99 44.2545 52.99Z" fill="url(#paint25_linear_4077_32137)"/>
<path d="M44.2535 51.301C46.8092 51.301 48.881 49.2291 48.881 46.6734C48.881 44.1177 46.8092 42.0459 44.2535 42.0459C41.6978 42.0459 39.626 44.1177 39.626 46.6734C39.626 49.2291 41.6978 51.301 44.2535 51.301Z" fill="url(#paint26_linear_4077_32137)"/>
<path d="M44.2546 49.5536C45.8451 49.5536 47.1344 48.2642 47.1344 46.6738C47.1344 45.0833 45.8451 43.7939 44.2546 43.7939C42.6641 43.7939 41.3748 45.0833 41.3748 46.6738C41.3748 48.2642 42.6641 49.5536 44.2546 49.5536Z" fill="url(#paint27_linear_4077_32137)"/>
<defs>
<linearGradient id="paint0_linear_4077_32137" x1="29.1927" y1="26.0846" x2="49.9968" y2="46.8887" gradientUnits="userSpaceOnUse">
<stop stop-color="#FD4755"/>
<stop offset="1" stop-color="#AC2538"/>
</linearGradient>
<linearGradient id="paint1_linear_4077_32137" x1="54.7726" y1="38.5914" x2="49.6499" y2="33.4686" gradientUnits="userSpaceOnUse">
<stop stop-color="#972437" stop-opacity="0"/>
<stop offset="1" stop-color="#972437"/>
</linearGradient>
<linearGradient id="paint2_linear_4077_32137" x1="42.6403" y1="39.5524" x2="42.6403" y2="44.8897" gradientUnits="userSpaceOnUse">
<stop stop-color="#972437" stop-opacity="0"/>
<stop offset="1" stop-color="#972437"/>
</linearGradient>
<linearGradient id="paint3_linear_4077_32137" x1="50.0996" y1="40.203" x2="31.0549" y2="22.627" gradientUnits="userSpaceOnUse">
<stop stop-color="#FD4755"/>
<stop offset="1" stop-color="#AC2538"/>
</linearGradient>
<linearGradient id="paint4_linear_4077_32137" x1="34.1393" y1="24.9594" x2="47.4688" y2="38.289" gradientUnits="userSpaceOnUse">
<stop stop-color="#EAF6FF"/>
<stop offset="0.2575" stop-color="#DCE8FA"/>
<stop offset="0.7423" stop-color="#B8C4ED"/>
<stop offset="1" stop-color="#A2AEE6"/>
</linearGradient>
<linearGradient id="paint5_linear_4077_32137" x1="48.5058" y1="32.3222" x2="51.3251" y2="35.1416" gradientUnits="userSpaceOnUse">
<stop stop-color="#537983"/>
<stop offset="1" stop-color="#3E5959"/>
</linearGradient>
<linearGradient id="paint6_linear_4077_32137" x1="36.821" y1="37.4528" x2="36.821" y2="39.2152" gradientUnits="userSpaceOnUse">
<stop stop-color="#FEE45A"/>
<stop offset="1" stop-color="#FE860A"/>
</linearGradient>
<linearGradient id="paint7_linear_4077_32137" x1="50.8745" y1="39.4271" x2="54.3643" y2="42.9169" gradientUnits="userSpaceOnUse">
<stop stop-color="#FEE45A"/>
<stop offset="1" stop-color="#FE860A"/>
</linearGradient>
<linearGradient id="paint8_linear_4077_32137" x1="15.5147" y1="7.71591" x2="29.7364" y2="21.9376" gradientUnits="userSpaceOnUse">
<stop stop-color="#FEE45A"/>
<stop offset="1" stop-color="#FE860A"/>
</linearGradient>
<linearGradient id="paint9_linear_4077_32137" x1="29.128" y1="13.9496" x2="10.7909" y2="0.921399" gradientUnits="userSpaceOnUse">
<stop stop-color="#FE860A" stop-opacity="0"/>
<stop offset="1" stop-color="#FE7701"/>
</linearGradient>
<linearGradient id="paint10_linear_4077_32137" x1="30.9299" y1="9.98307" x2="19.7101" y2="21.8161" gradientUnits="userSpaceOnUse">
<stop stop-color="#FE860A" stop-opacity="0"/>
<stop offset="1" stop-color="#FE7701"/>
</linearGradient>
<linearGradient id="paint11_linear_4077_32137" x1="21.429" y1="18.6446" x2="21.429" y2="21.8648" gradientUnits="userSpaceOnUse">
<stop stop-color="#FE860A" stop-opacity="0"/>
<stop offset="1" stop-color="#FE7701"/>
</linearGradient>
<linearGradient id="paint12_linear_4077_32137" x1="17.1612" y1="6.49702" x2="22.2277" y2="11.5635" gradientUnits="userSpaceOnUse">
<stop stop-color="#EAF6FF"/>
<stop offset="0.2575" stop-color="#DCE8FA"/>
<stop offset="0.7423" stop-color="#B8C4ED"/>
<stop offset="1" stop-color="#A2AEE6"/>
</linearGradient>
<linearGradient id="paint13_linear_4077_32137" x1="9.98718" y1="23.3774" x2="29.511" y2="42.9012" gradientUnits="userSpaceOnUse">
<stop stop-color="#FEE45A"/>
<stop offset="1" stop-color="#FE860A"/>
</linearGradient>
<linearGradient id="paint14_linear_4077_32137" x1="28.6751" y1="31.9352" x2="3.5014" y2="14.0499" gradientUnits="userSpaceOnUse">
<stop stop-color="#FE860A" stop-opacity="0"/>
<stop offset="1" stop-color="#FE7701"/>
</linearGradient>
<linearGradient id="paint15_linear_4077_32137" x1="31.1446" y1="26.4898" x2="15.7418" y2="42.7344" gradientUnits="userSpaceOnUse">
<stop stop-color="#FE860A" stop-opacity="0"/>
<stop offset="1" stop-color="#FE7701"/>
</linearGradient>
<linearGradient id="paint16_linear_4077_32137" x1="18.1064" y1="38.3831" x2="18.1064" y2="42.8038" gradientUnits="userSpaceOnUse">
<stop stop-color="#FE860A" stop-opacity="0"/>
<stop offset="1" stop-color="#FE7701"/>
</linearGradient>
<linearGradient id="paint17_linear_4077_32137" x1="12.2473" y1="21.7049" x2="19.2027" y2="28.6603" gradientUnits="userSpaceOnUse">
<stop stop-color="#EAF6FF"/>
<stop offset="0.2575" stop-color="#DCE8FA"/>
<stop offset="0.7423" stop-color="#B8C4ED"/>
<stop offset="1" stop-color="#A2AEE6"/>
</linearGradient>
<linearGradient id="paint18_linear_4077_32137" x1="18.9367" y1="43.186" x2="18.9367" y2="45.8215" gradientUnits="userSpaceOnUse">
<stop stop-color="#EAF6FF"/>
<stop offset="0.2575" stop-color="#DCE8FA"/>
<stop offset="0.7423" stop-color="#B8C4ED"/>
<stop offset="1" stop-color="#A2AEE6"/>
</linearGradient>
<linearGradient id="paint19_linear_4077_32137" x1="25.3194" y1="49.3398" x2="19.583" y2="43.6033" gradientUnits="userSpaceOnUse">
<stop stop-color="#8795DE" stop-opacity="0"/>
<stop offset="0.4678" stop-color="#7D8DDC" stop-opacity="0.468"/>
<stop offset="1" stop-color="#6C7FD8"/>
</linearGradient>
<linearGradient id="paint20_linear_4077_32137" x1="50.4823" y1="43.1855" x2="50.4823" y2="45.821" gradientUnits="userSpaceOnUse">
<stop stop-color="#EAF6FF"/>
<stop offset="0.2575" stop-color="#DCE8FA"/>
<stop offset="0.7423" stop-color="#B8C4ED"/>
<stop offset="1" stop-color="#A2AEE6"/>
</linearGradient>
<linearGradient id="paint21_linear_4077_32137" x1="53.8307" y1="49.3398" x2="48.0942" y2="43.6033" gradientUnits="userSpaceOnUse">
<stop stop-color="#8795DE" stop-opacity="0"/>
<stop offset="0.4678" stop-color="#7D8DDC" stop-opacity="0.468"/>
<stop offset="1" stop-color="#6C7FD8"/>
</linearGradient>
<linearGradient id="paint22_linear_4077_32137" x1="11.6455" y1="42.6353" x2="19.9438" y2="50.9337" gradientUnits="userSpaceOnUse">
<stop stop-color="#537983"/>
<stop offset="1" stop-color="#3E5959"/>
</linearGradient>
<linearGradient id="paint23_linear_4077_32137" x1="17.8245" y1="48.8135" x2="11.8258" y2="42.8148" gradientUnits="userSpaceOnUse">
<stop stop-color="#537983"/>
<stop offset="1" stop-color="#3E5959"/>
</linearGradient>
<linearGradient id="paint24_linear_4077_32137" x1="13.7981" y1="44.7878" x2="17.913" y2="48.9027" gradientUnits="userSpaceOnUse">
<stop stop-color="#EAF6FF"/>
<stop offset="0.2575" stop-color="#DCE8FA"/>
<stop offset="0.7423" stop-color="#B8C4ED"/>
<stop offset="1" stop-color="#A2AEE6"/>
</linearGradient>
<linearGradient id="paint25_linear_4077_32137" x1="40.2157" y1="42.6358" x2="48.514" y2="50.9342" gradientUnits="userSpaceOnUse">
<stop stop-color="#537983"/>
<stop offset="1" stop-color="#3E5959"/>
</linearGradient>
<linearGradient id="paint26_linear_4077_32137" x1="46.394" y1="48.814" x2="40.3954" y2="42.8153" gradientUnits="userSpaceOnUse">
<stop stop-color="#537983"/>
<stop offset="1" stop-color="#3E5959"/>
</linearGradient>
<linearGradient id="paint27_linear_4077_32137" x1="42.3686" y1="44.7878" x2="46.4834" y2="48.9027" gradientUnits="userSpaceOnUse">
<stop stop-color="#EAF6FF"/>
<stop offset="0.2575" stop-color="#DCE8FA"/>
<stop offset="0.7423" stop-color="#B8C4ED"/>
<stop offset="1" stop-color="#A2AEE6"/>
</linearGradient>
</defs>
</svg>
