<svg width="25" height="27" viewBox="0 0 25 27" fill="none" xmlns="http://www.w3.org/2000/svg">
<path d="M14.2654 24.2431C14.2654 24.2431 17.0874 15.016 24.1734 12.0485C24.4541 11.935 24.5632 11.5863 24.4073 11.3187L24.3995 11.3106C24.2748 11.0998 24.0253 11.0106 23.8071 11.0998C22.248 11.7241 16.4404 14.635 13.9536 24.2512H14.2654V24.2431Z" fill="#A62170"/>
<path d="M19.4497 15.9809C19.4497 15.9809 21.0478 13.4593 24.7038 13.4512C24.8909 13.4512 25.0235 13.6214 24.9923 13.816V13.8241C24.9689 13.962 24.852 14.0674 24.7194 14.0755C23.9477 14.116 21.422 14.3674 19.4497 15.9809Z" fill="#964595"/>
<path d="M16.768 16.3054C16.7602 16.3054 16.7602 16.3054 16.768 16.3054C16.7524 16.3216 16.7446 16.3297 16.7368 16.3378C16.729 16.3459 16.7134 16.3622 16.6979 16.3784C16.6901 16.3865 16.6823 16.3946 16.6667 16.4027C16.6277 16.4351 16.5731 16.4838 16.5108 16.5405C16.3704 16.6622 16.1678 16.8162 15.9105 16.9784C15.8559 17.0189 15.7936 17.0514 15.7312 17.0919C15.3882 17.2946 14.9595 17.5135 14.4528 17.6919C14.4528 17.6919 11.9348 11.2946 7.1952 9.68919C6.61054 3.66486 11.2254 0 11.2254 0C11.2254 0 22.7627 5.2946 16.768 16.3054Z" fill="#EC5699"/>
<path d="M16.7681 16.3057C16.7604 16.3057 16.7604 16.3138 16.7681 16.3057C16.737 16.3543 16.6356 16.5246 16.4485 16.8651C15.973 17.7489 14.9518 19.784 13.2914 23.7976C10.8748 29.6354 3.89787 25.703 3.89787 25.703C3.73416 22.3949 4.29543 20.4651 5.23868 19.3543C6.72761 17.6111 9.1442 17.9111 11.0853 18.0408C11.3503 18.057 11.5998 18.0732 11.8414 18.0813C12.8548 18.1057 13.7279 17.9354 14.4373 17.684C14.944 17.5057 15.3728 17.2949 15.7158 17.084C15.7781 17.0435 15.8405 17.0111 15.8951 16.9705C16.1523 16.8084 16.355 16.6462 16.4953 16.5327C16.5577 16.484 16.6122 16.4354 16.6512 16.3949C16.659 16.3867 16.6746 16.3786 16.6824 16.3705C16.698 16.3543 16.7136 16.3381 16.7214 16.33C16.7448 16.3219 16.7526 16.3138 16.7681 16.3057C16.7604 16.3057 16.7604 16.3057 16.7681 16.3057Z" fill="#851E83"/>
<path d="M14.4451 17.6834C13.7279 17.9347 12.8626 18.105 11.8492 18.0807C11.6075 18.0726 11.3503 18.0563 11.093 18.0401C8.51274 14.9266 7.42918 12.1131 7.19531 9.68066C11.9349 11.2861 14.4451 17.6834 14.4451 17.6834Z" fill="#A71982"/>
<path d="M11.0929 18.0403C9.15186 17.9106 6.72747 17.6106 5.24634 19.3539C0.109136 16.5485 0 11.0593 0 11.0593C2.78297 9.17818 5.18397 8.9998 7.1952 9.68088C7.42906 12.1133 8.51263 14.9268 11.0929 18.0403Z" fill="#A9248A"/>
</svg>
