<svg width="165" height="123" viewBox="0 0 165 123" fill="none" xmlns="http://www.w3.org/2000/svg">
<path d="M3.75038 111.288V85.2299H14.4304C16.4612 85.2299 18.3207 85.548 20.009 86.1842C21.6972 86.7958 23.153 87.6767 24.3764 88.8266C25.6242 89.9766 26.5785 91.3468 27.2391 92.9372C27.9242 94.5275 28.2667 96.2892 28.2667 98.2221C28.2667 100.155 27.9242 101.917 27.2391 103.507C26.5785 105.097 25.6242 106.48 24.3764 107.654C23.153 108.804 21.685 109.697 19.9723 110.333C18.284 110.97 16.4123 111.288 14.357 111.288H3.75038ZM10.1364 105.636H14.0267C15.5926 105.636 16.9383 105.342 18.0638 104.755C19.2138 104.143 20.0946 103.287 20.7063 102.186C21.3424 101.085 21.6605 99.7758 21.6605 98.2588C21.6605 96.7418 21.3424 95.4328 20.7063 94.3318C20.0946 93.2308 19.2138 92.3867 18.0638 91.7994C16.9383 91.1877 15.5926 90.8819 14.0267 90.8819H10.1364V105.636ZM40.1433 111.838C38.6752 111.838 37.305 111.581 36.0327 111.068C34.7849 110.554 33.6839 109.832 32.7296 108.902C31.7999 107.972 31.0781 106.884 30.5643 105.636C30.0505 104.388 29.7935 103.03 29.7935 101.562C29.7935 100.094 30.0505 98.7359 30.5643 97.4881C31.1025 96.2158 31.8366 95.1148 32.7663 94.185C33.7206 93.2308 34.8338 92.4968 36.1061 91.9829C37.4029 91.4447 38.7975 91.1755 40.2901 91.1755C41.7581 91.1755 43.116 91.4324 44.3639 91.9462C45.6362 92.4601 46.7372 93.1941 47.667 94.1483C48.6212 95.0781 49.3552 96.1669 49.869 97.4147C50.3829 98.6625 50.6398 100.02 50.6398 101.489C50.6398 102.957 50.3706 104.327 49.8323 105.599C49.3185 106.847 48.5845 107.936 47.6303 108.865C46.7005 109.795 45.5873 110.529 44.2905 111.068C43.0182 111.581 41.6358 111.838 40.1433 111.838ZM38.0146 105.819C38.6752 106.235 39.4092 106.443 40.2167 106.443C41.0241 106.443 41.7581 106.235 42.4187 105.819C43.0793 105.379 43.5932 104.792 43.9602 104.058C44.3516 103.299 44.5474 102.455 44.5474 101.525C44.5474 100.571 44.3516 99.7269 43.9602 98.9928C43.5932 98.2344 43.0793 97.6471 42.4187 97.2312C41.7581 96.7908 41.0241 96.5706 40.2167 96.5706C39.4092 96.5706 38.6752 96.7908 38.0146 97.2312C37.354 97.6471 36.8279 98.2344 36.4364 98.9928C36.0694 99.7269 35.8859 100.571 35.8859 101.525C35.8859 102.455 36.0694 103.299 36.4364 104.058C36.8279 104.792 37.354 105.379 38.0146 105.819ZM62.4822 111.838C61.0141 111.838 59.644 111.581 58.3717 111.068C57.1238 110.554 56.0228 109.832 55.0686 108.902C54.1388 107.972 53.417 106.884 52.9032 105.636C52.3894 104.388 52.1325 103.03 52.1325 101.562C52.1325 100.094 52.3894 98.7359 52.9032 97.4881C53.4415 96.2158 54.1755 95.1148 55.1053 94.185C56.0595 93.2308 57.1728 92.4968 58.4451 91.9829C59.7418 91.4447 61.1365 91.1755 62.629 91.1755C64.097 91.1755 65.455 91.4324 66.7028 91.9462C67.9751 92.4601 69.0762 93.1941 70.0059 94.1483C70.9601 95.0781 71.6942 96.1669 72.208 97.4147C72.7218 98.6625 72.9787 100.02 72.9787 101.489C72.9787 102.957 72.7096 104.327 72.1713 105.599C71.6575 106.847 70.9234 107.936 69.9692 108.865C69.0394 109.795 67.9262 110.529 66.6294 111.068C65.3571 111.581 63.9747 111.838 62.4822 111.838ZM60.3535 105.819C61.0141 106.235 61.7482 106.443 62.5556 106.443C63.363 106.443 64.097 106.235 64.7577 105.819C65.4183 105.379 65.9321 104.792 66.2991 104.058C66.6906 103.299 66.8863 102.455 66.8863 101.525C66.8863 100.571 66.6906 99.7269 66.2991 98.9928C65.9321 98.2344 65.4183 97.6471 64.7577 97.2312C64.097 96.7908 63.363 96.5706 62.5556 96.5706C61.7482 96.5706 61.0141 96.7908 60.3535 97.2312C59.6929 97.6471 59.1669 98.2344 58.7754 98.9928C58.4084 99.7269 58.2249 100.571 58.2249 101.525C58.2249 102.455 58.4084 103.299 58.7754 104.058C59.1669 104.792 59.6929 105.379 60.3535 105.819ZM74.9528 111.288V91.726H80.458L80.6782 94.8456C81.1431 93.7691 81.7915 92.9372 82.6233 92.3499C83.4552 91.7627 84.4217 91.4691 85.5227 91.4691C85.8408 91.4691 86.1589 91.4936 86.477 91.5425C86.795 91.5915 87.0764 91.6771 87.3211 91.7994L86.7339 97.745C86.4647 97.6471 86.1834 97.586 85.8897 97.5615C85.6206 97.5126 85.3392 97.4881 85.0456 97.4881C83.6754 97.4881 82.6478 97.8796 81.9627 98.6625C81.2776 99.421 80.9351 100.534 80.9351 102.002V111.288H74.9528ZM95.5533 111.288V85.2299H101.939V94.9924H112.362V85.2299H118.748V111.288H112.362V100.644H101.939V111.288H95.5533ZM130.785 111.838C128.974 111.838 127.384 111.459 126.014 110.701C124.643 109.918 123.579 108.829 122.821 107.434C122.086 106.039 121.719 104.388 121.719 102.479V91.726H127.702V102.59C127.702 103.788 127.971 104.73 128.509 105.416C129.072 106.101 129.843 106.443 130.821 106.443C131.8 106.443 132.559 106.101 133.097 105.416C133.66 104.73 133.941 103.788 133.941 102.59V91.726H139.923V102.479C139.923 103.874 139.703 105.146 139.263 106.296C138.847 107.446 138.235 108.437 137.428 109.269C136.645 110.101 135.69 110.737 134.565 111.178C133.439 111.618 132.179 111.838 130.785 111.838ZM142.553 111.288V83.8353H148.535V94.0749C149.196 93.1696 150.04 92.4601 151.068 91.9462C152.095 91.4324 153.209 91.1755 154.408 91.1755C155.655 91.1755 156.805 91.4447 157.857 91.9829C158.934 92.4968 159.864 93.2185 160.647 94.1483C161.454 95.0536 162.078 96.1302 162.518 97.378C162.983 98.6258 163.216 99.9593 163.216 101.378C163.216 102.846 162.983 104.217 162.518 105.489C162.054 106.761 161.405 107.875 160.573 108.829C159.741 109.783 158.763 110.529 157.637 111.068C156.512 111.581 155.301 111.838 154.004 111.838C152.756 111.838 151.63 111.581 150.627 111.068C149.649 110.529 148.841 109.783 148.205 108.829L148.058 111.288H142.553ZM150.554 105.819C151.215 106.235 151.961 106.443 152.793 106.443C153.625 106.443 154.359 106.235 154.995 105.819C155.655 105.379 156.169 104.792 156.536 104.058C156.928 103.299 157.123 102.455 157.123 101.525C157.123 100.571 156.928 99.7269 156.536 98.9928C156.169 98.2344 155.655 97.6471 154.995 97.2312C154.359 96.7908 153.625 96.5706 152.793 96.5706C151.961 96.5706 151.215 96.7908 150.554 97.2312C149.918 97.6471 149.404 98.2344 149.012 98.9928C148.645 99.7269 148.462 100.571 148.462 101.525C148.462 102.455 148.645 103.299 149.012 104.058C149.404 104.792 149.918 105.379 150.554 105.819Z" fill="white"/>
<path d="M117.988 36.1561V36.8719C117.988 39.4286 117.681 41.7808 117.272 44.2352L82.5007 9.46426L73.2966 0.464722H82.2962C102.034 0.464722 117.988 16.4184 117.988 36.1561Z" fill="white"/>
<path opacity="0.7" d="M82.5005 9.46423L47.0137 45.7692V4.24859C47.0137 2.10097 48.7522 0.362427 50.8998 0.362427H73.3987L82.5005 9.46423Z" fill="white"/>
<path d="M112.567 50.3713C113.794 51.5985 113.999 53.4393 113.181 54.9733C112.363 56.4051 111.34 57.8368 110.317 59.1663C103.772 67.3477 93.6476 72.6656 82.3982 72.6656H50.7976C48.7522 72.6656 47.0137 71.0293 47.0137 68.8817V58.0413C47.0137 57.0187 47.4227 56.0983 48.0363 55.3824L54.3769 48.8373L82.5005 20.2024L112.567 50.3713Z" fill="white"/>
</svg>
