<svg width="179" height="163" viewBox="0 0 179 163" fill="none" xmlns="http://www.w3.org/2000/svg">
<path fill-rule="evenodd" clip-rule="evenodd" d="M21.2191 55.4111L17.2495 48.5426C16.7349 47.6521 17.0422 46.5063 17.9336 45.9919L28.5251 39.8833C28.5228 41.8175 28.5212 43.7517 28.5212 45.686C28.5212 48.1918 28.6844 50.6596 28.9999 53.0797L23.7721 56.0948C22.881 56.6087 21.734 56.3016 21.2191 55.4111ZM45.0732 30.339L82.7179 8.62709C83.3123 8.28446 83.9925 8.28446 84.5868 8.62709L149.371 45.9917C150.263 46.5057 150.57 47.6516 150.056 48.5423L146.086 55.4109C145.571 56.3014 144.424 56.6084 143.533 56.0943L84.5871 22.0973C83.9927 21.7544 83.3123 21.7544 82.7179 22.0973L45.0544 43.82C45.0573 39.3265 45.0695 34.8326 45.0732 30.339Z" fill="black"/>
<path fill-rule="evenodd" clip-rule="evenodd" d="M161.268 17.0138C161.828 18.2891 160.959 18.5191 160.014 17.6405C154.968 12.947 149.474 12.3556 142.296 12.3453V18.2261C142.296 18.9987 141.663 19.6309 140.89 19.6309H139.75C139.75 25.642 139.723 31.6119 139.707 37.614L127.991 30.8572C127.981 27.1167 127.972 23.377 127.972 19.6309H126.832C124.75 19.6309 126.178 16.7796 123.537 16.7796C120.974 16.7796 122.247 19.6309 120.019 19.6309H112.38C111.485 19.6309 110.752 18.8992 110.752 18.0045V5.98401C110.752 5.0893 111.485 4.3576 112.38 4.3576H120.019C122.246 4.3576 120.974 7.20922 123.536 7.20922C126.234 7.20922 124.706 4.3576 126.831 4.3576C137.751 4.35787 154.845 2.36086 161.268 17.0138ZM138.69 56.1034L127.819 49.8336C125.731 71.4446 107.504 88.339 85.3227 88.339C61.7404 88.339 42.6242 69.2439 42.6242 45.6853C42.6242 39.7186 42.6448 33.7503 42.6448 27.783H42.6855C42.733 27.0455 43.1359 26.4183 43.7982 26.0616C48.4318 23.5661 51.5813 18.6737 51.5813 13.0459C51.5813 7.47615 48.4965 2.62675 43.9405 0.108271C43.3712 -0.206406 42.6765 0.202173 42.6765 0.85263V13.6325C42.6765 14.4125 42.2897 15.0825 41.6135 15.4721L37.8493 17.6437C37.1728 18.0335 36.3989 18.0335 35.7224 17.6437L31.9583 15.4721C31.2818 15.0825 30.895 14.4125 30.895 13.6325V0.85474C30.895 0.204811 30.2 -0.20456 29.6313 0.110382C25.0778 2.62965 21.9946 7.47774 21.9946 13.0459C21.9946 18.6737 25.1441 23.5656 29.7781 26.0616C30.44 26.4185 30.8432 27.0452 30.8907 27.783H30.9676C30.9676 33.7505 30.9515 39.7183 30.9515 45.6853C30.9515 75.682 55.2956 100 85.3227 100C111.782 99.9997 133.825 81.1151 138.69 56.1034Z" fill="#FEAE5A"/>
<path fill-rule="evenodd" clip-rule="evenodd" d="M73.6139 41.5576H82.3743C83.276 41.5576 84.0116 42.2925 84.0116 43.1933V51.9446C84.0116 52.8456 83.276 53.5802 82.3743 53.5802H73.6139C72.7119 53.5802 71.9763 52.8454 71.9763 51.9446V43.1933C71.9763 42.2925 72.7119 41.5576 73.6139 41.5576ZM88.2693 41.5576H97.0299C97.9317 41.5576 98.6673 42.2925 98.6673 43.1933V51.9446C98.6673 52.8456 97.9317 53.5802 97.0299 53.5802H88.2693C87.3673 53.5802 86.632 52.8454 86.632 51.9446V43.1933C86.6317 42.2925 87.3673 41.5576 88.2693 41.5576ZM98.6673 57.8335V66.5851C98.6673 67.4862 97.9317 68.2208 97.0299 68.2208H88.2693C87.3673 68.2208 86.632 67.4859 86.632 66.5851V57.8335C86.632 56.9325 87.3676 56.1979 88.2693 56.1979H97.0299C97.9317 56.1979 98.6673 56.9328 98.6673 57.8335ZM82.3743 68.2208H73.6139C72.7119 68.2208 71.9763 67.4859 71.9763 66.5851V57.8335C71.9763 56.9325 72.7119 56.1979 73.6139 56.1979H82.3743C83.276 56.1979 84.0116 56.9328 84.0116 57.8335V66.5851C84.0119 67.4862 83.2763 68.2208 82.3743 68.2208Z" fill="black"/>
<path d="M18.972 135.64L14.756 136.932C14.5973 136.071 14.1667 135.289 13.464 134.586C12.7613 133.883 11.73 133.532 10.37 133.532C9.25933 133.532 8.35267 133.838 7.65 134.45C6.94733 135.039 6.596 135.753 6.596 136.592C6.596 138.065 7.46867 138.972 9.214 139.312L12.58 139.958C14.7107 140.366 16.3653 141.216 17.544 142.508C18.7227 143.8 19.312 145.319 19.312 147.064C19.312 149.059 18.5187 150.804 16.932 152.3C15.368 153.773 13.26 154.51 10.608 154.51C9.08933 154.51 7.718 154.283 6.494 153.83C5.27 153.377 4.284 152.776 3.536 152.028C2.788 151.257 2.19867 150.453 1.768 149.614C1.36 148.753 1.11067 147.869 1.02 146.962L5.372 145.806C5.48533 147.098 5.984 148.175 6.868 149.036C7.77467 149.897 9.03267 150.328 10.642 150.328C11.866 150.328 12.818 150.056 13.498 149.512C14.2007 148.968 14.552 148.254 14.552 147.37C14.552 146.667 14.2913 146.067 13.77 145.568C13.2713 145.047 12.5573 144.695 11.628 144.514L8.262 143.834C6.31267 143.426 4.77133 142.621 3.638 141.42C2.50467 140.219 1.938 138.723 1.938 136.932C1.938 134.801 2.754 133.011 4.386 131.56C6.04067 130.109 8.024 129.384 10.336 129.384C11.7187 129.384 12.954 129.577 14.042 129.962C15.13 130.347 16.0027 130.869 16.66 131.526C17.3173 132.161 17.8273 132.818 18.19 133.498C18.5527 134.178 18.8133 134.892 18.972 135.64ZM26.0987 143.732H33.5787C33.5334 142.803 33.1934 142.021 32.5587 141.386C31.9467 140.751 31.0401 140.434 29.8387 140.434C28.7507 140.434 27.8667 140.774 27.1867 141.454C26.5067 142.134 26.1441 142.893 26.0987 143.732ZM34.0207 148.084L37.7947 149.206C37.3414 150.747 36.4461 152.017 35.1087 153.014C33.7941 154.011 32.1507 154.51 30.1787 154.51C27.7761 154.51 25.7361 153.705 24.0587 152.096C22.3814 150.464 21.5427 148.288 21.5427 145.568C21.5427 142.984 22.3587 140.876 23.9907 139.244C25.6227 137.589 27.5494 136.762 29.7707 136.762C32.3547 136.762 34.3721 137.533 35.8227 139.074C37.2961 140.615 38.0327 142.735 38.0327 145.432C38.0327 145.613 38.0214 145.817 37.9987 146.044C37.9987 146.271 37.9987 146.452 37.9987 146.588L37.9647 146.826H25.9967C26.0421 147.914 26.4727 148.821 27.2887 149.546C28.1047 150.271 29.0794 150.634 30.2127 150.634C32.1394 150.634 33.4087 149.784 34.0207 148.084ZM51.7937 137.204V141.76C51.3404 141.669 50.887 141.624 50.4337 141.624C49.1417 141.624 48.099 141.998 47.3057 142.746C46.5124 143.471 46.1157 144.673 46.1157 146.35V154H41.5937V137.272H45.9797V139.754C46.7957 138.009 48.3824 137.136 50.7397 137.136C50.989 137.136 51.3404 137.159 51.7937 137.204ZM71.2486 137.272L64.7546 154H60.2326L53.3986 137.272H58.3626L62.5106 148.492L66.4886 137.272H71.2486ZM78.5219 154H73.9999V137.272H78.5219V154ZM73.4559 131.798C73.4559 131.027 73.7279 130.37 74.2719 129.826C74.8159 129.259 75.4733 128.976 76.2439 128.976C77.0146 128.976 77.6719 129.248 78.2159 129.792C78.7599 130.336 79.0319 131.005 79.0319 131.798C79.0319 132.546 78.7599 133.192 78.2159 133.736C77.6719 134.28 77.0146 134.552 76.2439 134.552C75.4733 134.552 74.8159 134.28 74.2719 133.736C73.7279 133.192 73.4559 132.546 73.4559 131.798ZM90.8772 140.944C89.6759 140.944 88.6672 141.363 87.8512 142.202C87.0352 143.041 86.6272 144.185 86.6272 145.636C86.6272 147.087 87.0352 148.243 87.8512 149.104C88.6899 149.943 89.7099 150.362 90.9112 150.362C91.9766 150.362 92.8266 150.09 93.4612 149.546C94.0959 148.979 94.5266 148.311 94.7532 147.54L98.7312 148.866C98.3232 150.407 97.4392 151.733 96.0792 152.844C94.7192 153.955 92.9966 154.51 90.9112 154.51C88.4179 154.51 86.3212 153.671 84.6212 151.994C82.9439 150.294 82.1052 148.175 82.1052 145.636C82.1052 143.075 82.9326 140.955 84.5872 139.278C86.2646 137.601 88.3272 136.762 90.7752 136.762C92.9059 136.762 94.6512 137.317 96.0112 138.428C97.3712 139.516 98.2439 140.842 98.6292 142.406L94.5832 143.766C94.0392 141.885 92.8039 140.944 90.8772 140.944ZM105.189 143.732H112.669C112.623 142.803 112.283 142.021 111.649 141.386C111.037 140.751 110.13 140.434 108.929 140.434C107.841 140.434 106.957 140.774 106.277 141.454C105.597 142.134 105.234 142.893 105.189 143.732ZM113.111 148.084L116.885 149.206C116.431 150.747 115.536 152.017 114.199 153.014C112.884 154.011 111.241 154.51 109.269 154.51C106.866 154.51 104.826 153.705 103.149 152.096C101.471 150.464 100.633 148.288 100.633 145.568C100.633 142.984 101.449 140.876 103.081 139.244C104.713 137.589 106.639 136.762 108.861 136.762C111.445 136.762 113.462 137.533 114.913 139.074C116.386 140.615 117.123 142.735 117.123 145.432C117.123 145.613 117.111 145.817 117.089 146.044C117.089 146.271 117.089 146.452 117.089 146.588L117.055 146.826H105.087C105.132 147.914 105.563 148.821 106.379 149.546C107.195 150.271 108.169 150.634 109.303 150.634C111.229 150.634 112.499 149.784 113.111 148.084ZM125.206 144.174V154H120.684V129.384H125.206V138.666C126.226 137.442 127.733 136.83 129.728 136.83C131.768 136.83 133.309 137.453 134.352 138.7C135.417 139.924 135.95 141.511 135.95 143.46V154H131.428V144.242C131.428 143.245 131.167 142.44 130.646 141.828C130.147 141.216 129.376 140.91 128.334 140.91C127.404 140.91 126.656 141.216 126.09 141.828C125.546 142.44 125.251 143.222 125.206 144.174ZM151.354 154C151.264 153.547 151.218 152.946 151.218 152.198C150.788 152.946 150.142 153.513 149.28 153.898C148.442 154.261 147.546 154.442 146.594 154.442C144.622 154.442 143.07 153.819 141.936 152.572C140.803 151.303 140.236 149.727 140.236 147.846V137.272H144.758V146.928C144.758 147.925 145.019 148.741 145.54 149.376C146.062 149.988 146.821 150.294 147.818 150.294C148.793 150.294 149.564 149.999 150.13 149.41C150.697 148.798 150.98 147.993 150.98 146.996V137.272H155.502V150.974C155.502 152.039 155.559 153.048 155.672 154H151.354ZM164.714 154H160.328V129.384H164.782V139.108C165.19 138.473 165.836 137.941 166.72 137.51C167.627 137.057 168.669 136.83 169.848 136.83C172.228 136.83 174.109 137.646 175.492 139.278C176.875 140.91 177.566 143.007 177.566 145.568C177.566 148.129 176.841 150.249 175.39 151.926C173.939 153.581 172.035 154.408 169.678 154.408C167.389 154.408 165.734 153.592 164.714 151.96V154ZM171.854 149.104C172.647 148.243 173.044 147.075 173.044 145.602C173.044 144.129 172.647 142.973 171.854 142.134C171.083 141.295 170.097 140.876 168.896 140.876C167.695 140.876 166.697 141.295 165.904 142.134C165.111 142.973 164.714 144.129 164.714 145.602C164.714 147.075 165.111 148.243 165.904 149.104C166.72 149.943 167.717 150.362 168.896 150.362C170.097 150.362 171.083 149.943 171.854 149.104Z" fill="black"/>
</svg>
