<svg width="24" height="24" viewBox="0 0 24 24" fill="none" xmlns="http://www.w3.org/2000/svg">
<path d="M18.475 11.3748H15.1083C13.4333 11.3748 12.625 10.6332 12.625 9.09984V5.3165C12.625 3.78317 13.4417 3.0415 15.1083 3.0415H18.475C20.15 3.0415 20.9583 3.78317 20.9583 5.3165V9.0915C20.9583 10.6332 20.1417 11.3748 18.475 11.3748ZM15.1083 4.2915C13.9917 4.2915 13.875 4.60817 13.875 5.3165V9.0915C13.875 9.80817 13.9917 10.1165 15.1083 10.1165H18.475C19.5917 10.1165 19.7083 9.79984 19.7083 9.0915V5.3165C19.7083 4.59984 19.5917 4.2915 18.475 4.2915H15.1083Z" fill="#6B6C71"/>
<path d="M18.475 20.9583H15.1083C13.4333 20.9583 12.625 20.1417 12.625 18.475V15.1083C12.625 13.4333 13.4417 12.625 15.1083 12.625H18.475C20.15 12.625 20.9583 13.4417 20.9583 15.1083V18.475C20.9583 20.1417 20.1417 20.9583 18.475 20.9583ZM15.1083 13.875C14.125 13.875 13.875 14.125 13.875 15.1083V18.475C13.875 19.4583 14.125 19.7083 15.1083 19.7083H18.475C19.4583 19.7083 19.7083 19.4583 19.7083 18.475V15.1083C19.7083 14.125 19.4583 13.875 18.475 13.875H15.1083Z" fill="#6B6C71"/>
<path d="M8.89187 11.3748H5.5252C3.8502 11.3748 3.04187 10.6332 3.04187 9.09984V5.3165C3.04187 3.78317 3.85854 3.0415 5.5252 3.0415H8.89187C10.5669 3.0415 11.3752 3.78317 11.3752 5.3165V9.0915C11.3752 10.6332 10.5585 11.3748 8.89187 11.3748ZM5.5252 4.2915C4.40854 4.2915 4.29187 4.60817 4.29187 5.3165V9.0915C4.29187 9.80817 4.40854 10.1165 5.5252 10.1165H8.89187C10.0085 10.1165 10.1252 9.79984 10.1252 9.0915V5.3165C10.1252 4.59984 10.0085 4.2915 8.89187 4.2915H5.5252Z" fill="#6B6C71"/>
<path d="M8.89187 20.9583H5.5252C3.8502 20.9583 3.04187 20.1417 3.04187 18.475V15.1083C3.04187 13.4333 3.85854 12.625 5.5252 12.625H8.89187C10.5669 12.625 11.3752 13.4417 11.3752 15.1083V18.475C11.3752 20.1417 10.5585 20.9583 8.89187 20.9583ZM5.5252 13.875C4.54187 13.875 4.29187 14.125 4.29187 15.1083V18.475C4.29187 19.4583 4.54187 19.7083 5.5252 19.7083H8.89187C9.8752 19.7083 10.1252 19.4583 10.1252 18.475V15.1083C10.1252 14.125 9.8752 13.875 8.89187 13.875H5.5252Z" fill="#6B6C71"/>
</svg>
