<svg width="24" height="24" viewBox="0 0 24 24" fill="none" xmlns="http://www.w3.org/2000/svg">
<path d="M16.25 3.56V4.01584L16.7039 4.05787C17.9607 4.17424 18.8396 4.60009 19.4285 5.22534C20.0187 5.8518 20.3659 6.72969 20.4607 7.83991C20.4603 7.84001 20.4601 7.84 20.46 7.84H3.54161C3.54098 7.83968 3.54018 7.83919 3.53936 7.83853C3.63436 6.72896 3.98156 5.85155 4.57144 5.22534C5.16041 4.60009 6.0393 4.17424 7.29608 4.05787L7.74999 4.01584V3.56V2C7.74999 1.86614 7.86613 1.75 7.99999 1.75C8.13384 1.75 8.24999 1.86614 8.24999 2V3.5V4H8.74999H15.25H15.75V3.5V2C15.75 1.86614 15.8661 1.75 16 1.75C16.1338 1.75 16.25 1.86614 16.25 2V3.56Z" fill="white" stroke="black"/>
<path d="M9.54448 18.5815L9.55928 18.5682L9.57298 18.5537C9.83498 18.2772 10 17.8962 10 17.4998C10 17.1035 9.83498 16.7225 9.57298 16.446L9.55928 16.4315L9.54448 16.4182C9.40399 16.2918 9.24625 16.1908 9.07231 16.1183C8.70923 15.967 8.29077 15.967 7.92769 16.1183C7.75375 16.1908 7.59601 16.2918 7.45552 16.4182L7.44072 16.4315L7.42702 16.446C7.16502 16.7225 7 17.1035 7 17.4998C7 17.8962 7.16502 18.2772 7.42702 18.5537L7.44072 18.5682L7.45552 18.5815C7.59601 18.7079 7.75375 18.8089 7.92769 18.8814C8.09884 18.9527 8.29415 18.9998 8.5 18.9998C8.70585 18.9998 8.90116 18.9527 9.07231 18.8814C9.24625 18.8089 9.40399 18.7079 9.54448 18.5815ZM9.54448 15.0815L9.56404 15.0639L9.58165 15.0443C9.70809 14.9038 9.80906 14.7461 9.88154 14.5722C9.95285 14.401 10 14.2057 10 13.9998C10 13.794 9.95285 13.5987 9.88154 13.4275C9.80906 13.2536 9.70809 13.0959 9.58165 12.9554L9.56404 12.9358L9.54448 12.9182C9.40399 12.7918 9.24625 12.6908 9.07231 12.6183C8.70923 12.467 8.29077 12.467 7.92769 12.6183C7.75375 12.6908 7.59601 12.7918 7.45552 12.9182L7.43596 12.9358L7.41835 12.9554C7.29191 13.0959 7.19094 13.2536 7.11846 13.4275C7.04715 13.5987 7 13.794 7 13.9998C7 14.2057 7.04715 14.401 7.11846 14.5722C7.19094 14.7461 7.29191 14.9038 7.41835 15.0443L7.43596 15.0639L7.45552 15.0815C7.59601 15.2079 7.75375 15.3089 7.92769 15.3814C8.09884 15.4527 8.29415 15.4998 8.5 15.4998C8.70585 15.4998 8.90116 15.4527 9.07231 15.3814C9.24625 15.3089 9.40399 15.2079 9.54448 15.0815ZM13.0445 15.0815L13.0593 15.0682L13.073 15.0537C13.335 14.7772 13.5 14.3962 13.5 13.9998C13.5 13.6035 13.335 13.2225 13.073 12.946L13.0593 12.9315L13.0445 12.9182C12.9061 12.7937 12.751 12.6938 12.5802 12.6216C12.2125 12.4559 11.7875 12.4559 11.4198 12.6216C11.249 12.6938 11.0939 12.7937 10.9555 12.9182L10.9407 12.9315L10.927 12.946C10.665 13.2225 10.5 13.6035 10.5 13.9998C10.5 14.3962 10.665 14.7772 10.927 15.0537L10.9407 15.0682L10.9555 15.0815C11.096 15.2079 11.2538 15.3089 11.4277 15.3814C11.5988 15.4527 11.7941 15.4998 12 15.4998C12.2059 15.4998 12.4012 15.4527 12.5723 15.3814C12.7462 15.3089 12.904 15.2079 13.0445 15.0815ZM4 10.3398H20C20.2739 10.3398 20.5 10.566 20.5 10.8398V16.9998C20.5 18.4232 20.1441 19.5329 19.4461 20.2846C18.7543 21.0296 17.6547 21.4998 16 21.4998H8C6.3453 21.4998 5.24565 21.0296 4.5539 20.2846C3.85591 19.5329 3.5 18.4232 3.5 16.9998V10.8398C3.5 10.566 3.72614 10.3398 4 10.3398Z" fill="white" stroke="black"/>
</svg>
