<svg width="31" height="30" viewBox="0 0 31 30" fill="none" xmlns="http://www.w3.org/2000/svg">
<path fill-rule="evenodd" clip-rule="evenodd" d="M11.3306 7.83178C10.4252 7.97468 10.0189 8.14351 9.59274 8.55396C8.5529 9.55546 8.25399 11.53 8.88753 13.2131C9.49 14.8138 11.5132 17.4472 13.1908 18.8144C14.8201 20.1422 16.6835 21.022 18.8192 21.472C19.3858 21.5915 20.4284 21.5908 20.8827 21.4709C21.7518 21.2414 22.7977 20.4888 23.1371 19.8488C23.4455 19.2672 23.5881 18.0288 23.3906 17.6469C23.3148 17.5003 23.0764 17.3623 21.9482 16.8116C21.2049 16.4489 20.4218 16.0834 20.2079 15.9995C19.4942 15.7194 19.3162 15.7859 18.6895 16.5675C17.9415 17.5003 17.8078 17.6536 17.7433 17.6528C17.71 17.6524 17.4788 17.563 17.2294 17.4542C16.2768 17.0382 14.9458 16.0106 13.9937 14.9559C13.587 14.5054 12.9332 13.645 12.9332 13.5602C12.9332 13.5319 13.1113 13.3031 13.3289 13.0516C13.881 12.4137 14.0674 12.0567 14.0602 11.6509C14.0555 11.3803 13.9577 11.1035 13.4328 9.87348C13.0907 9.07216 12.7418 8.31636 12.6574 8.19392C12.3893 7.80532 12.0628 7.71622 11.3306 7.83178Z" fill="#2C2B46"/>
<path opacity="0.3" fill-rule="evenodd" clip-rule="evenodd" d="M14.769 0.08888C13.0888 0.261615 11.8069 0.55918 10.4856 1.08327C8.63899 1.81576 7.13724 2.78841 5.68706 4.19133C2.91975 6.86836 1.40214 10.243 1.24107 14.0778C1.13716 16.5527 1.76078 19.2438 2.94294 21.4214C3.08479 21.6827 3.20088 21.9319 3.20082 21.975C3.20082 22.0181 2.63699 23.7146 1.94785 25.7449C1.25878 27.7753 0.694946 29.4819 0.694946 29.5374C0.694946 29.6594 0.930038 29.8918 1.05341 29.8918C1.10219 29.8918 2.87534 29.3411 4.99367 28.6679C7.112 27.9948 8.88265 27.4441 8.9284 27.4441C8.97414 27.4441 9.31046 27.5861 9.67575 27.7596C10.8709 28.3273 12.3588 28.7733 13.8074 28.9979C14.7494 29.144 17.0027 29.1449 17.9451 28.9996C21.1461 28.5059 24.0121 27.0734 26.2512 24.8479C27.623 23.4843 28.7288 21.8315 29.4465 20.072C29.905 18.9478 30.2012 17.8374 30.4255 16.4005C30.5242 15.7679 30.5244 13.5193 30.4258 12.8165C29.9357 9.32465 28.379 6.30692 25.8656 3.97663C23.6679 1.93913 21.0033 0.668683 17.9451 0.200248C17.3591 0.110501 15.2711 0.0373043 14.769 0.08888ZM17.6972 3.22724C21.1234 3.80203 24.0811 5.80328 25.8621 8.75172C26.6061 9.98341 27.1953 11.6632 27.3901 13.1078C27.4826 13.7937 27.4839 15.417 27.3925 16.08C27.238 17.1999 26.7726 18.7109 26.2786 19.6961C25.1417 21.9638 23.0996 23.9495 20.8239 25.0002C19.3049 25.7015 17.9534 26.0247 16.2842 26.0857C13.9911 26.1695 11.8522 25.6228 9.90956 24.4566C9.6258 24.2863 9.35697 24.166 9.2685 24.1698C9.18464 24.1734 8.26374 24.4484 7.22203 24.781C6.18032 25.1135 5.32137 25.381 5.31327 25.3754C5.30511 25.3698 5.57394 24.5464 5.91061 23.5456C6.24722 22.5449 6.52229 21.6555 6.52177 21.5692C6.52118 21.4749 6.36774 21.1802 6.13673 20.8296C5.0773 19.2222 4.44441 17.3189 4.31136 15.3405C4.25605 14.5173 4.30437 13.4042 4.42482 12.729C5.08453 9.03034 7.38363 5.96232 10.7478 4.29121C12.0021 3.66823 13.2605 3.31408 14.9147 3.11855C15.3382 3.06849 17.1799 3.14047 17.6972 3.22724Z" fill="#2C2B46"/>
</svg>
